<svg width="50" height="12" viewBox="0 0 50 12" fill="none" xmlns="http://www.w3.org/2000/svg">
<path d="M1.14014 2.76812H3.07916L2.10965 0.615819L1.14014 2.76812ZM0 4.34127L1.90238 0.0486832H2.32307L4.23161 4.34127H3.75594L3.22545 3.16449H0.987688L0.469364 4.34127H0Z" fill="#A7A9AC"/>
<path d="M6.74136 4.3415V0.073246H7.13157L9.82668 3.56108V0.073246H10.2656V4.3415H9.8815L7.18038 0.841643V4.3415H6.74136Z" fill="#A7A9AC"/>
<path d="M13.2246 4.3415V0.073246H16.1513V0.481778H13.6758V1.84765H15.7063V2.25619H13.6758V3.93297H16.2428V4.3415H13.2246Z" fill="#A7A9AC"/>
<path d="M18.7967 4.3415V0.073246H19.2417L20.7845 2.14038L22.327 0.073246H22.766V4.3415H22.3209V0.756184L20.9246 2.62206H20.6502L19.2417 0.756184V4.3415H18.7967Z" fill="#A7A9AC"/>
<path d="M36.6229 4.3415V2.3843L34.9645 0.073246H35.4888L36.8545 1.96346L38.2204 0.073246H38.7327L37.0741 2.37814V4.3415H36.6229Z" fill="#A7A9AC"/>
<path d="M42.5188 4.3415V0.481778H41.0493V0.073246H44.4578V0.481778H42.97V4.3415H42.5188Z" fill="#A7A9AC"/>
<path d="M46.9814 4.3415V0.073246H49.9082V0.481778H47.4326V1.84765H49.4631V2.25619H47.4326V3.93297H49.9997V4.3415H46.9814Z" fill="#A7A9AC"/>
<path d="M32.8275 0.621844C32.7633 0.555735 32.6962 0.495781 32.6268 0.440372V1.07508C32.864 1.38804 32.986 1.76198 32.986 2.1947C32.986 2.62756 32.864 3.00135 32.6268 3.31431V3.95489C32.6962 3.89963 32.7633 3.83982 32.8275 3.77371C33.2359 3.35301 33.4432 2.82267 33.4432 2.1947C33.4432 1.56688 33.2359 1.04269 32.8275 0.621844Z" fill="#D1D3D4"/>
<path d="M29.6143 0.625405C29.3641 0.875555 29.1949 1.15513 29.0919 1.48621C28.9963 1.16249 28.827 0.882912 28.5843 0.632762C28.1722 0.213393 27.6719 2.96234e-05 27.0539 2.96234e-05C26.4359 2.96234e-05 25.9209 0.213393 25.5162 0.632762C25.1042 1.05213 24.9056 1.58186 24.9056 2.20723C24.9056 2.83261 25.1042 3.3697 25.5162 3.78907C25.9209 4.20843 26.4359 4.41444 27.0539 4.41444C27.6719 4.41444 28.1722 4.20843 28.5843 3.78907C28.827 3.53892 28.9963 3.25198 29.0919 2.93561C29.1949 3.25934 29.3641 3.54627 29.6143 3.79642C30.0337 4.20843 30.5487 4.41444 31.1814 4.41444C31.5934 4.41444 31.9539 4.32615 32.2629 4.16429V3.71549C31.9539 3.89943 31.6008 3.99507 31.1961 3.99507C30.7032 3.99507 30.2838 3.82585 29.9454 3.48741C29.6143 3.15633 29.4451 2.72225 29.4451 2.20723C29.4451 1.69222 29.6143 1.26549 29.9454 0.934413C30.2838 0.588618 30.6958 0.419399 31.1888 0.419399C31.564 0.419399 31.9245 0.522402 32.2629 0.713693V0.25018C31.9539 0.0809608 31.5934 2.96234e-05 31.1814 2.96234e-05C30.5487 2.96234e-05 30.0337 0.206036 29.6143 0.625405ZM25.8547 3.48006C25.531 3.14162 25.3617 2.71489 25.3617 2.20723C25.3617 1.69958 25.531 1.27285 25.8547 0.934413C26.171 0.588618 26.5757 0.419399 27.0539 0.419399C27.5322 0.419399 27.9294 0.588618 28.2532 0.934413C28.5769 1.27285 28.7461 1.69958 28.7461 2.20723C28.7461 2.71489 28.5769 3.14162 28.2532 3.48006C27.9294 3.82585 27.5322 3.99507 27.0539 3.99507C26.5757 3.99507 26.171 3.82585 25.8547 3.48006Z" fill="url(#paint0_linear)"/>
<path d="M35.3946 10.1236V10.2715H35.2678C35.2256 10.2715 35.1834 10.3137 35.1834 10.356C35.1834 10.3982 35.2256 10.4404 35.2678 10.4404H35.3946V11.7076C35.3946 11.7499 35.4368 11.7921 35.479 11.7921C35.5213 11.7921 35.5635 11.7499 35.5635 11.7076V10.4404H36.007C36.0493 10.4404 36.0915 10.3982 36.0915 10.356C36.0915 10.3137 36.0493 10.2715 36.007 10.2715H35.5635V10.1448C35.5635 9.95468 35.6269 9.82796 35.817 9.82796C35.9648 9.82796 36.007 9.84908 36.0704 9.84908C36.1126 9.84908 36.1338 9.80684 36.1338 9.78572C36.1338 9.74348 36.1338 9.72236 36.0915 9.70124C36.0282 9.68012 35.9014 9.659 35.8381 9.659C35.5213 9.659 35.3946 9.84908 35.3946 10.1236ZM27.3056 10.1236V10.2715H27.1789C27.1367 10.2715 27.0944 10.3137 27.0944 10.356C27.0944 10.3982 27.1367 10.4404 27.1789 10.4404H27.3056V11.7076C27.3056 11.7499 27.3479 11.7921 27.3901 11.7921C27.4324 11.7921 27.4746 11.7499 27.4746 11.7076V10.4404H27.9181C27.9604 10.4404 28.0026 10.3982 28.0026 10.356C28.0026 10.3137 27.9604 10.2715 27.9181 10.2715H27.4746V10.1448C27.4746 9.95468 27.5591 9.82796 27.728 9.82796C27.8759 9.82796 27.9181 9.84908 27.9815 9.84908C28.0237 9.84908 28.066 9.80684 28.066 9.78572C28.066 9.74348 28.0448 9.72236 28.0026 9.70124C27.9392 9.68012 27.8336 9.659 27.7492 9.659C27.4324 9.659 27.3056 9.84908 27.3056 10.1236ZM20.3361 9.7646V11.7076C20.3361 11.7499 20.3783 11.7921 20.4205 11.7921C20.4628 11.7921 20.505 11.7499 20.505 11.7076V9.7646C20.505 9.72236 20.4628 9.68012 20.4205 9.68012C20.3572 9.68012 20.3361 9.72236 20.3361 9.7646ZM32.6067 9.78572V11.602C32.6067 11.7076 32.6701 11.771 32.7968 11.771H33.8106C33.8739 11.771 33.9162 11.7499 33.9162 11.6865C33.9162 11.6443 33.8739 11.602 33.8106 11.602H32.7757V9.78572C32.7757 9.74348 32.7546 9.70124 32.6912 9.70124C32.649 9.70124 32.6067 9.74348 32.6067 9.78572ZM16.7668 9.70124C16.7246 9.70124 16.6823 9.74348 16.6823 9.78572C16.6823 9.84908 16.7246 9.8702 16.7668 9.8702H17.4215V11.7076C17.4215 11.7499 17.4426 11.7921 17.506 11.7921C17.5482 11.7921 17.5905 11.7499 17.5905 11.7076V9.8702H18.2241C18.2663 9.8702 18.3085 9.84908 18.3085 9.78572C18.3085 9.74348 18.2663 9.70124 18.2241 9.70124H16.7668ZM34.4019 9.84908C34.4019 9.91244 34.4442 9.95468 34.5075 9.95468C34.5709 9.95468 34.6342 9.91244 34.6342 9.84908C34.6342 9.78572 34.5709 9.72236 34.5075 9.72236C34.4442 9.72236 34.4019 9.78572 34.4019 9.84908ZM24.9824 10.018V11.3486C24.9824 11.602 25.1092 11.8132 25.3837 11.8132C25.5104 11.8132 25.616 11.7921 25.6794 11.7499C25.7428 11.7287 25.7639 11.7076 25.7639 11.6654C25.7639 11.602 25.7216 11.5598 25.6583 11.5809C25.5738 11.602 25.4893 11.6443 25.3837 11.6443C25.2148 11.6443 25.1514 11.5175 25.1514 11.3697V10.4404H25.616C25.6794 10.4404 25.7216 10.3982 25.7216 10.356C25.7216 10.3137 25.6794 10.2715 25.616 10.2715H25.1514V10.018C25.1514 9.9758 25.1092 9.93356 25.0669 9.93356C25.0247 9.93356 24.9824 9.9758 24.9824 10.018ZM36.535 10.8206C36.535 10.9051 36.535 11.0529 36.535 11.1585C36.5562 11.5387 36.7885 11.8132 37.1898 11.8132C37.401 11.8132 37.5699 11.771 37.6544 11.7076C37.6966 11.6865 37.7178 11.6654 37.7178 11.6443C37.7178 11.5809 37.6544 11.5387 37.5699 11.5598C37.4221 11.6231 37.2954 11.6443 37.1898 11.6443C36.8941 11.6443 36.704 11.4753 36.704 11.1585V11.0952H37.6333C37.7389 11.0952 37.8022 11.0318 37.8022 10.9262V10.8417C37.8022 10.4827 37.5699 10.2081 37.1898 10.2081C36.8307 10.2081 36.5773 10.4404 36.535 10.8206ZM37.1898 10.3771C37.4643 10.3771 37.6544 10.5883 37.6333 10.884C37.6333 10.9051 37.6122 10.9262 37.591 10.9262H36.704C36.704 10.5883 36.8518 10.3771 37.1898 10.3771ZM30.3891 10.6728V11.7076C30.3891 11.7499 30.4314 11.7921 30.4736 11.7921C30.537 11.7921 30.5581 11.7499 30.5581 11.7076V10.6728C30.5581 10.4827 30.6637 10.3771 30.8538 10.3771C30.9594 10.3771 31.0227 10.4193 31.0861 10.4193C31.1495 10.4193 31.1706 10.3771 31.1706 10.3348C31.1706 10.2926 31.1495 10.2715 31.1072 10.2504C31.0439 10.2292 30.9594 10.2081 30.8538 10.2081C30.5581 10.2081 30.3891 10.3771 30.3891 10.6728ZM28.4461 10.7995C28.4461 10.9262 28.4461 11.0952 28.4461 11.2219C28.4672 11.5598 28.7418 11.8132 29.1008 11.8132C29.4599 11.8132 29.7133 11.5598 29.7344 11.2219C29.7555 11.0952 29.7555 10.9262 29.7344 10.7995C29.7133 10.4616 29.4599 10.2081 29.1008 10.2081C28.7418 10.2081 28.4672 10.4616 28.4461 10.7995ZM28.6362 11.2219C28.6151 11.1163 28.6151 10.9051 28.6362 10.7995C28.6362 10.5672 28.8263 10.3771 29.1008 10.3771C29.3754 10.3771 29.5443 10.5672 29.5655 10.7995C29.5655 10.9051 29.5655 11.1163 29.5655 11.2219C29.5443 11.4753 29.3543 11.6443 29.1008 11.6443C28.8263 11.6443 28.6573 11.4753 28.6362 11.2219ZM23.0816 10.3771C23.0605 10.3982 23.0394 10.4193 23.0394 10.4616V11.7076C23.0394 11.7499 23.0816 11.7921 23.1239 11.7921C23.1872 11.7921 23.2084 11.7499 23.2084 11.7076V10.5038C23.2928 10.4404 23.4829 10.3771 23.673 10.3771C23.9264 10.3771 24.1165 10.5249 24.1165 10.8206V11.7076C24.1165 11.7499 24.1588 11.7921 24.201 11.7921C24.2644 11.7921 24.2855 11.7499 24.2855 11.7076V10.8206C24.2855 10.4404 24.0743 10.2081 23.673 10.2081C23.3773 10.2081 23.1661 10.3137 23.0816 10.3771ZM21.1597 10.8206C21.1597 10.9051 21.1597 11.0529 21.1597 11.1585C21.1809 11.5387 21.4132 11.8132 21.8145 11.8132C22.0045 11.8132 22.1946 11.771 22.2791 11.7076C22.3213 11.6865 22.3213 11.6654 22.3213 11.6443C22.3213 11.5809 22.2791 11.5387 22.1946 11.5598C22.0468 11.6231 21.9201 11.6443 21.8145 11.6443C21.5188 11.6443 21.3287 11.4753 21.3287 11.1585V11.0952H22.258C22.3636 11.0952 22.4269 11.0318 22.4269 10.9262V10.8417C22.4269 10.4827 22.1946 10.2081 21.8145 10.2081C21.4554 10.2081 21.1809 10.4404 21.1597 10.8206ZM21.7933 10.3771C22.089 10.3771 22.2791 10.5883 22.258 10.884C22.258 10.9051 22.2369 10.9262 22.2157 10.9262H21.3287C21.3287 10.5883 21.4765 10.3771 21.7933 10.3771ZM18.6042 10.3137C18.562 10.3348 18.562 10.3771 18.562 10.3982C18.562 10.4616 18.6042 10.5038 18.6887 10.4827C18.7732 10.4404 18.921 10.3982 19.0689 10.3982C19.3434 10.3982 19.4701 10.5038 19.4701 10.7784V10.9051C19.3012 10.8628 19.1745 10.8417 19.0266 10.8417C18.6465 10.8417 18.4353 11.0529 18.4353 11.3275C18.4353 11.6231 18.6465 11.8132 19.0055 11.8132C19.3012 11.8132 19.5124 11.7076 19.5969 11.6443C19.6391 11.6231 19.6391 11.602 19.6391 11.5598V10.7572C19.6391 10.3771 19.4279 10.2081 19.0689 10.2081C18.8788 10.2081 18.7098 10.2715 18.6042 10.3137ZM18.6042 11.3275C18.6042 11.1374 18.7521 10.9896 19.0266 10.9896C19.1745 10.9896 19.3012 11.0318 19.4701 11.074V11.5175C19.3645 11.5809 19.1956 11.6443 19.0266 11.6443C18.7521 11.6443 18.6042 11.5175 18.6042 11.3275ZM34.423 10.3348V11.7076C34.423 11.7499 34.4653 11.7921 34.5075 11.7921C34.5709 11.7921 34.592 11.7499 34.592 11.7076V10.3348C34.592 10.2715 34.5498 10.2292 34.5075 10.2292C34.4653 10.2292 34.423 10.2715 34.423 10.3348Z" fill="url(#paint1_linear)"/>
<defs>
<linearGradient id="paint0_linear" x1="24.9056" y1="2.20724" x2="32.2629" y2="2.20724" gradientUnits="userSpaceOnUse">
<stop stop-color="#00B7F1"/>
<stop offset="0.82" stop-color="#009188"/>
<stop offset="1" stop-color="#009188"/>
</linearGradient>
<linearGradient id="paint1_linear" x1="16.6823" y1="10.7361" x2="37.8022" y2="10.7361" gradientUnits="userSpaceOnUse">
<stop stop-color="#00B7F1"/>
<stop offset="0.82" stop-color="#009188"/>
<stop offset="1" stop-color="#009188"/>
</linearGradient>
</defs>
</svg>
