<svg width="50" height="12" viewBox="0 0 50 12" fill="none" xmlns="http://www.w3.org/2000/svg">
<path d="M2.29512 5.55056C2.29512 4.8968 2.05443 4.56982 1.57323 4.56982C1.46878 4.56982 1.36553 4.58352 1.26341 4.6106C1.16116 4.63794 1.07827 4.67194 1.01474 4.71279V6.55851C1.06464 6.56769 1.12817 6.57548 1.20547 6.58227C1.28264 6.58918 1.36654 6.59251 1.45747 6.59251C1.7343 6.59251 1.94319 6.49717 2.08403 6.30644C2.22467 6.11578 2.29512 5.8639 2.29512 5.55056ZM3.33034 5.57771C3.33034 5.8639 3.2883 6.12269 3.20434 6.3542C3.12026 6.58572 2.99884 6.78324 2.83997 6.94663C2.68098 7.11022 2.48585 7.23615 2.25433 7.32458C2.02275 7.41312 1.75937 7.45755 1.46426 7.45755C1.34171 7.45755 1.21332 7.45158 1.07947 7.4404C0.945485 7.42909 0.81389 7.41425 0.684494 7.39615C0.555036 7.37799 0.431297 7.35644 0.313276 7.33149C0.19513 7.3066 0.0908093 7.28046 0 7.25312V2.24749L1.01474 2.08391V3.86829C1.12817 3.81846 1.24638 3.77975 1.36886 3.7526C1.49147 3.72526 1.62313 3.71169 1.7639 3.71169C2.01816 3.71169 2.24289 3.75593 2.43815 3.84454C2.63334 3.93296 2.7968 4.05902 2.92852 4.22248C3.06011 4.38588 3.16004 4.58239 3.22816 4.81158C3.29628 5.0409 3.33034 5.29623 3.33034 5.57771Z" fill="#003B79"/>
<path d="M6.13589 4.68583C6.04502 4.66314 5.93838 4.6392 5.81583 4.61431C5.69322 4.58936 5.56144 4.57679 5.42079 4.57679C5.35713 4.57679 5.28116 4.58258 5.19267 4.59383C5.10413 4.60514 5.03707 4.61777 4.9917 4.63134V7.3692H3.97696V3.97758C4.15851 3.91392 4.37306 3.85384 4.62054 3.79697C4.86802 3.74022 5.14378 3.71188 5.44807 3.71188C5.50249 3.71188 5.56823 3.71533 5.64552 3.72212C5.7227 3.72891 5.79981 3.73802 5.8771 3.74939C5.95421 3.76071 6.03139 3.77428 6.10862 3.79018C6.18579 3.80608 6.25165 3.82537 6.30614 3.84806L6.13589 4.68583Z" fill="#003B79"/>
<path d="M8.86049 5.21709C8.8559 5.13099 8.84113 5.04684 8.81618 4.96521C8.79123 4.88339 8.75265 4.81074 8.70042 4.74708C8.6482 4.68373 8.58234 4.63144 8.50297 4.59047C8.42347 4.54975 8.32474 4.52926 8.20666 4.52926C8.09316 4.52926 7.99557 4.54862 7.91387 4.58714C7.83211 4.62573 7.76405 4.67682 7.7095 4.74048C7.65502 4.80408 7.61297 4.87773 7.5835 4.96175C7.55396 5.04584 7.53247 5.13099 7.51877 5.21709H8.86049ZM6.47682 5.6054C6.47682 5.28766 6.52553 5.00932 6.62325 4.77102C6.72078 4.53272 6.84911 4.33413 7.00798 4.17501C7.16691 4.01614 7.3496 3.89586 7.55635 3.8141C7.76286 3.7324 7.97514 3.69149 8.19302 3.69149C8.70149 3.69149 9.10331 3.84715 9.39855 4.15798C9.69361 4.46906 9.84116 4.92656 9.84116 5.53036C9.84116 5.58944 9.83884 5.65423 9.83438 5.72455C9.82985 5.79481 9.82526 5.85728 9.82074 5.91182H7.51877C7.54152 6.12072 7.63905 6.28631 7.81175 6.40892C7.98413 6.53146 8.21571 6.5928 8.50636 6.5928C8.6925 6.5928 8.87513 6.57577 9.05455 6.54171C9.2339 6.50765 9.38033 6.46573 9.49389 6.41577L9.63007 7.23978C9.57559 7.26711 9.50288 7.29432 9.41219 7.32154C9.32126 7.34881 9.22033 7.37263 9.1091 7.39299C8.9978 7.41341 8.87859 7.43051 8.75151 7.44414C8.62432 7.45784 8.49725 7.4645 8.37012 7.4645C8.04766 7.4645 7.76738 7.41693 7.52902 7.32154C7.29071 7.2262 7.09319 7.09574 6.93652 6.92989C6.77992 6.76424 6.6641 6.56798 6.58919 6.3408C6.51428 6.11387 6.47682 5.86859 6.47682 5.6054Z" fill="#003B79"/>
<path d="M10.488 3.90932C10.6605 3.85936 10.883 3.81285 11.1554 3.76968C11.4279 3.7265 11.7139 3.70495 12.0136 3.70495C12.3177 3.70495 12.5709 3.74473 12.773 3.82423C12.9749 3.90366 13.135 4.0159 13.2531 4.16119C13.3711 4.30649 13.455 4.47906 13.505 4.67878C13.555 4.87856 13.58 5.10109 13.58 5.3463V7.36905H12.5652V5.46878C12.5652 5.14193 12.522 4.91042 12.4358 4.77424C12.3495 4.63793 12.1883 4.56987 11.9522 4.56987C11.8796 4.56987 11.8025 4.57314 11.7207 4.58005C11.639 4.58684 11.5663 4.59488 11.5028 4.60387V7.36905H10.488V3.90932Z" fill="#003B79"/>
<path d="M14.3288 2.89443L15.3435 2.73109V3.78674H16.5625V4.63118H15.3435V5.89107C15.3435 6.10461 15.381 6.27485 15.4559 6.40199C15.5308 6.52899 15.6817 6.59253 15.9087 6.59253C16.0177 6.59253 16.1301 6.58235 16.2459 6.56199C16.3617 6.5415 16.4672 6.51322 16.5625 6.47671L16.7056 7.26691C16.583 7.31693 16.4468 7.35992 16.297 7.39618C16.1472 7.43244 15.9633 7.45066 15.7453 7.45066C15.4683 7.45066 15.239 7.41321 15.0574 7.3383C14.8758 7.26345 14.7306 7.15913 14.6216 7.02515C14.5126 6.89116 14.4365 6.72884 14.3934 6.53817C14.3502 6.3475 14.3288 6.13628 14.3288 5.90477V2.89443Z" fill="#003B79"/>
<path d="M18.4832 6.66098C18.583 6.66098 18.6784 6.65878 18.7692 6.65407C18.86 6.64961 18.9326 6.6427 18.9872 6.63358V5.86412C18.9463 5.85501 18.885 5.84596 18.8032 5.83679C18.7215 5.82786 18.6467 5.82321 18.5785 5.82321C18.4832 5.82321 18.3935 5.829 18.3095 5.84018C18.2255 5.85156 18.1517 5.8733 18.0882 5.90497C18.0245 5.93671 17.9746 5.97982 17.9384 6.03431C17.9019 6.08885 17.8839 6.15691 17.8839 6.23861C17.8839 6.39767 17.9372 6.50765 18.0439 6.56892C18.1506 6.63025 18.297 6.66098 18.4832 6.66098ZM18.4015 3.69149C18.7011 3.69149 18.9508 3.72549 19.1506 3.79374C19.3504 3.8618 19.5104 3.95952 19.6308 4.08653C19.751 4.21372 19.8361 4.36813 19.8862 4.54968C19.9361 4.7313 19.9611 4.93335 19.9611 5.15588V7.26711C19.8157 7.29891 19.6137 7.3363 19.3549 7.37941C19.0962 7.42252 18.7829 7.44414 18.4151 7.44414C18.1835 7.44414 17.9735 7.42366 17.7852 7.38281C17.5967 7.3419 17.4344 7.27503 17.2982 7.1819C17.162 7.08889 17.0574 6.96735 16.9849 6.81759C16.9122 6.66758 16.8759 6.48389 16.8759 6.26589C16.8759 6.05706 16.9179 5.88002 17.0019 5.7346C17.0859 5.58943 17.1983 5.47361 17.339 5.38727C17.4797 5.30117 17.6409 5.23877 17.8226 5.19999C18.0041 5.16153 18.1925 5.14218 18.3878 5.14218C18.5195 5.14218 18.6365 5.14796 18.7386 5.15921C18.8408 5.17064 18.9235 5.18535 18.9872 5.20345V5.10811C18.9872 4.93555 18.935 4.79716 18.8305 4.69265C18.7261 4.58821 18.5445 4.53605 18.2857 4.53605C18.1131 4.53605 17.9428 4.54862 17.7749 4.57338C17.6069 4.59858 17.4616 4.63371 17.339 4.67895L17.2096 3.8618C17.2686 3.84363 17.3424 3.8244 17.431 3.80398C17.5195 3.78343 17.6159 3.76546 17.7204 3.74943C17.8248 3.7336 17.9349 3.71996 18.0507 3.70846C18.1665 3.69721 18.2833 3.69149 18.4015 3.69149Z" fill="#003B79"/>
<path d="M32.3815 6.73571C32.4223 6.76751 32.4734 6.80157 32.5347 6.83796C32.596 6.87435 32.6675 6.90841 32.7493 6.94008C32.8309 6.97194 32.9195 6.99796 33.0149 7.01845C33.1102 7.03887 33.21 7.04899 33.3146 7.04899C33.5324 7.04899 33.7152 7.01166 33.8627 6.93675C34.0102 6.86178 34.1294 6.75966 34.2203 6.6302C34.3111 6.50087 34.3769 6.34879 34.4178 6.17402C34.4587 5.99919 34.4791 5.81417 34.4791 5.61892C34.4791 5.15582 34.3633 4.80063 34.1318 4.55302C33.9002 4.30561 33.5937 4.18187 33.2124 4.18187C32.9944 4.18187 32.8184 4.19199 32.6845 4.21247C32.5506 4.23296 32.4496 4.25452 32.3815 4.2772V6.73571ZM32.3815 8.62913H31.9388V3.97065C32.0704 3.9254 32.2384 3.8821 32.4428 3.84144C32.6471 3.80047 32.9059 3.77998 33.2192 3.77998C33.478 3.77998 33.7129 3.82209 33.9241 3.90605C34.1352 3.9902 34.3167 4.11155 34.4689 4.27042C34.621 4.42929 34.739 4.62222 34.8231 4.84933C34.907 5.07639 34.949 5.33285 34.949 5.61892C34.949 5.88682 34.9138 6.13298 34.8435 6.35771C34.773 6.5825 34.6698 6.77568 34.5336 6.93675C34.3974 7.09788 34.2305 7.22395 34.033 7.31469C33.8355 7.4055 33.6096 7.45088 33.3553 7.45088C33.1238 7.45088 32.9229 7.41782 32.7526 7.35221C32.5824 7.28635 32.4586 7.22395 32.3815 7.16481V8.62913Z" fill="#A3CCEA"/>
<path d="M35.773 7.36901V2.16573L36.2157 2.08391V3.94999C36.3609 3.89557 36.5085 3.85365 36.6584 3.82418C36.8082 3.79458 36.9581 3.77975 37.1079 3.77975C37.3803 3.77975 37.6072 3.81846 37.7889 3.89557C37.9705 3.97293 38.1158 4.08291 38.2248 4.22588C38.3338 4.36884 38.4097 4.54035 38.453 4.74013C38.496 4.93997 38.5176 5.16005 38.5176 5.40068V7.36901H38.0749V5.54365C38.0749 5.29397 38.0579 5.08294 38.0238 4.91037C37.9898 4.73793 37.933 4.59709 37.8536 4.48806C37.7741 4.37909 37.6686 4.30079 37.5369 4.25315C37.4053 4.20545 37.2395 4.18163 37.0398 4.18163C36.9625 4.18163 36.8797 4.18842 36.7911 4.20212C36.7027 4.21569 36.6198 4.23046 36.5426 4.2463C36.4654 4.26226 36.3962 4.27929 36.3349 4.29733C36.2736 4.31562 36.2338 4.32913 36.2157 4.33824V7.36901H35.773Z" fill="#A3CCEA"/>
<path d="M40.6222 7.0487C40.7947 7.0487 40.9456 7.04317 41.075 7.03167C41.2045 7.02049 41.3145 7.00565 41.4054 6.98749V5.74796C41.3554 5.72528 41.276 5.70152 41.167 5.67645C41.0581 5.65169 40.9083 5.63905 40.7176 5.63905C40.6086 5.63905 40.4951 5.64691 40.377 5.66275C40.2589 5.67877 40.1499 5.71283 40.0501 5.76499C39.9502 5.81715 39.8684 5.88873 39.8049 5.97948C39.7412 6.07041 39.7096 6.1907 39.7096 6.34039C39.7096 6.47217 39.731 6.58347 39.7743 6.67422C39.8174 6.76496 39.8787 6.83767 39.9582 6.89203C40.0376 6.94658 40.133 6.98642 40.2442 7.01131C40.3554 7.03638 40.4814 7.0487 40.6222 7.0487ZM40.5813 3.76612C40.8129 3.76612 41.0092 3.79918 41.1704 3.86479C41.3315 3.93065 41.4621 4.02146 41.562 4.13728C41.6618 4.2531 41.7345 4.39054 41.78 4.54934C41.8253 4.70827 41.8481 4.88072 41.8481 5.06699V7.28713C41.8026 7.30083 41.7367 7.3156 41.6506 7.33144C41.5643 7.34734 41.4644 7.36443 41.3509 7.38253C41.2373 7.4005 41.1114 7.41527 40.9729 7.42677C40.8344 7.43796 40.6925 7.4438 40.5473 7.4438C40.3611 7.4438 40.1897 7.42331 40.0331 7.38253C39.8764 7.34155 39.7402 7.27689 39.6245 7.18834C39.5086 7.09973 39.4178 6.98642 39.3521 6.84792C39.2862 6.70953 39.2533 6.54023 39.2533 6.34039C39.2533 6.14972 39.2896 5.98645 39.3622 5.85015C39.4348 5.71396 39.5369 5.60154 39.6687 5.51299C39.8004 5.42444 39.9569 5.35978 40.1387 5.31886C40.3202 5.27802 40.5177 5.25765 40.7312 5.25765C40.7947 5.25765 40.8616 5.26099 40.9321 5.26777C41.0024 5.27469 41.0705 5.2838 41.1364 5.29505C41.2021 5.30648 41.259 5.31786 41.3067 5.32923C41.3543 5.34055 41.3872 5.35066 41.4054 5.35978V5.14183C41.4054 5.01923 41.3962 4.90007 41.3781 4.78425C41.3599 4.66856 41.3203 4.56417 41.259 4.47091C41.1977 4.3779 41.1114 4.30306 41.0002 4.24618C40.8888 4.18944 40.7425 4.16109 40.5609 4.16109C40.3021 4.16109 40.1091 4.17932 39.9819 4.21558C39.8548 4.25203 39.7617 4.28144 39.7028 4.30419L39.6415 3.91588C39.7186 3.87962 39.8378 3.84556 39.999 3.81369C40.1601 3.78215 40.3542 3.76612 40.5813 3.76612Z" fill="#A3CCEA"/>
<path d="M44.0406 3.77998C44.1859 3.77998 44.3232 3.79136 44.4527 3.81404C44.582 3.83686 44.6716 3.85954 44.7216 3.8821L44.6332 4.2635C44.5967 4.24553 44.523 4.22611 44.4118 4.20562C44.3005 4.18533 44.1541 4.17496 43.9725 4.17496C43.7818 4.17496 43.6285 4.18859 43.5128 4.21593C43.397 4.24314 43.321 4.26595 43.2847 4.28399V7.36924H42.842V4.01163C42.9554 3.96166 43.1121 3.91064 43.3119 3.85841C43.5116 3.80613 43.7546 3.77998 44.0406 3.77998Z" fill="#A3CCEA"/>
<path d="M45.253 3.97065C45.3846 3.93439 45.556 3.89354 45.7671 3.84804C45.9782 3.8028 46.2517 3.77998 46.5878 3.77998C47.0327 3.77998 47.355 3.9095 47.5549 4.1683C47.5776 4.15013 47.6218 4.1194 47.6877 4.07623C47.7535 4.03306 47.8363 3.98894 47.9362 3.9435C48.0361 3.89813 48.153 3.85954 48.287 3.82768C48.4209 3.79601 48.5696 3.77998 48.7331 3.77998C49.001 3.77998 49.2177 3.81983 49.3836 3.89914C49.5491 3.9787 49.6774 4.0898 49.7683 4.2329C49.859 4.37599 49.9204 4.54743 49.9521 4.74702C49.9838 4.94687 49.9998 5.16493 49.9998 5.40091V7.36924H49.5572V5.54388C49.5572 5.31237 49.5469 5.11139 49.5265 4.94115C49.5061 4.77097 49.4652 4.63032 49.4039 4.51896C49.3426 4.40786 49.2552 4.32383 49.1417 4.26696C49.0282 4.21021 48.8806 4.18181 48.6991 4.18181C48.5628 4.18181 48.4391 4.19444 48.3279 4.21932C48.2165 4.24427 48.1201 4.27494 48.0384 4.3112C47.9567 4.34765 47.8897 4.38391 47.8375 4.42017C47.7852 4.45662 47.7478 4.48383 47.7252 4.50193C47.766 4.62002 47.7967 4.75281 47.8171 4.90036C47.8375 5.04798 47.8477 5.2034 47.8477 5.36685V7.36924H47.405V5.54388C47.405 5.31237 47.3948 5.11139 47.3744 4.94115C47.354 4.77097 47.3119 4.63032 47.2484 4.51896C47.1847 4.40786 47.0952 4.32383 46.9794 4.26696C46.8636 4.21021 46.7104 4.18181 46.5197 4.18181C46.3063 4.18181 46.1257 4.19318 45.9782 4.21587C45.8306 4.23855 45.7365 4.25904 45.6956 4.2772V7.36924H45.253V3.97065Z" fill="#A3CCEA"/>
<path d="M26.1282 6.21398C26.5534 6.21398 26.8981 5.86931 26.8981 5.44415C26.8981 5.01898 26.5534 4.67431 26.1282 4.67431C25.7031 4.67431 25.3584 5.01898 25.3584 5.44415C25.3584 5.86931 25.7031 6.21398 26.1282 6.21398Z" fill="#A3CCEA"/>
<path d="M22.007 7.19416V11.2008C23.1583 11.2008 23.8492 10.642 23.8559 9.30012C23.0363 8.81528 22.3835 8.07749 22.007 7.19416Z" fill="#A3CCEA"/>
<path d="M23.8566 5.3935V1.91988C23.8566 0.563583 23.164 0 22.007 0V5.43718H22.0072C22.0071 5.43957 22.007 5.44196 22.007 5.44428C22.007 7.71684 23.8558 9.56564 26.1284 9.56564C28.4009 9.56564 30.2497 7.71684 30.2497 5.44428C30.2497 3.17179 28.4009 1.32299 26.1284 1.32299C25.4242 1.32299 24.761 1.50083 24.1805 1.81342V4.28104C24.5778 3.61842 25.3011 3.17248 26.1284 3.17248C27.381 3.17248 28.4001 4.19162 28.4001 5.44428C28.4001 6.69695 27.381 7.71608 26.1284 7.71608C24.8756 7.71608 23.8566 6.69695 23.8566 5.44428V5.3935Z" fill="#003B79"/>
</svg>
