<svg width="50" height="9" viewBox="0 0 50 9" fill="none" xmlns="http://www.w3.org/2000/svg">
<path d="M3.15775 3.05894H3.18453C3.72399 3.05894 4.16972 3.25028 4.54698 3.64347C4.92746 4.04124 5.11881 4.50579 5.13135 5.0666C5.14982 5.65012 4.95831 6.14432 4.54596 6.57938C4.1648 6.98155 3.72398 7.17696 3.19809 7.17696C3.1608 7.17696 3.12267 7.17628 3.08013 7.17391C2.54051 7.15527 2.09562 6.94444 1.72005 6.52751C1.34177 6.10737 1.16077 5.63181 1.16704 5.07304C1.17314 4.50884 1.37025 4.04124 1.76835 3.64178C2.16002 3.24943 2.6144 3.05894 3.15775 3.05894ZM5.13135 2.64591C4.59715 2.18764 3.96024 1.94071 3.23029 1.9124C2.35018 1.88308 1.58616 2.19306 0.952138 2.83166C0.320147 3.46823 0 4.24208 0 5.13134C0 5.98586 0.298115 6.73292 0.885194 7.35237C1.47431 7.97352 2.20409 8.29909 3.05183 8.32044C3.08962 8.32146 3.12674 8.32265 3.16419 8.32265C3.99566 8.32265 4.73205 8.01318 5.35269 7.40305C6.00163 6.76496 6.3194 5.99569 6.29788 5.12185V0.0404968H5.13135V2.64591Z" fill="#5B6871"/>
<path d="M12.1579 4.44661H8.27659C8.39608 4.05918 8.60996 3.74327 8.9257 3.48651C9.29652 3.18449 9.71666 3.03823 10.2099 3.03823L10.2404 3.03857C10.7469 3.04501 11.1696 3.19517 11.5321 3.49972C11.834 3.75293 12.0399 4.06426 12.1579 4.44661ZM10.3744 1.86119C9.4677 1.81052 8.66962 2.12067 8.00373 2.77977C7.33818 3.43769 7.01193 4.23391 7.03329 5.14453C7.04769 6.00786 7.3797 6.76018 8.02 7.38251C8.6464 7.99247 9.37618 8.30076 10.19 8.30076L10.2449 8.30025C10.9074 8.29313 11.5182 8.09467 12.0596 7.70995C12.6019 7.32421 12.9924 6.79764 13.2202 6.1426L13.313 5.8755H12.087L12.0326 5.99142C11.676 6.7473 11.0993 7.12084 10.2705 7.13338L10.2415 7.13372C9.717 7.13372 9.27398 6.96898 8.88604 6.62968C8.54962 6.33513 8.34133 5.98142 8.25337 5.55382H13.3718V4.94064C13.3718 4.17917 13.0793 3.48295 12.5004 2.86858C11.9033 2.25032 11.1888 1.91187 10.3744 1.86119Z" fill="#5B6871"/>
<path d="M15.3434 0H14.1765V8.15945H15.3434V0Z" fill="#5B6871"/>
<path d="M22.6538 1.9022C21.8386 1.83712 21.1629 2.1454 20.6453 2.81858C20.1728 2.20404 19.5696 1.89389 18.848 1.89389C18.7793 1.89389 18.7088 1.89627 18.6363 1.9022C17.9641 1.96016 17.4125 2.21523 16.9976 2.65926C16.5542 3.13161 16.3291 3.76055 16.3291 4.52778V8.15923H17.5264V4.43711C17.5264 4.0307 17.634 3.69835 17.8546 3.42006C18.0646 3.15669 18.339 3.02822 18.6936 3.02822C19.0679 3.02822 19.3808 3.14652 19.6503 3.38905C19.9136 3.62666 20.0418 3.91325 20.0418 4.26594V8.15923H21.2493V4.26594C21.2493 3.91325 21.3771 3.62666 21.6403 3.38905C21.9098 3.14652 22.2223 3.02822 22.5974 3.02822C22.9519 3.02822 23.2299 3.15821 23.4468 3.42684C23.6741 3.70784 23.7846 4.03815 23.7846 4.43711V8.15923H24.9819V4.52778C24.9819 3.75936 24.7532 3.13076 24.3025 2.65859C23.8805 2.21455 23.3261 1.96016 22.6538 1.9022Z" fill="#5B6871"/>
<path d="M29.0834 7.14586C29.0525 7.14586 29.0217 7.14535 28.991 7.14382C28.4565 7.11976 28.0122 6.9052 27.6328 6.48861C27.252 6.07085 27.0728 5.59749 27.0849 5.03821C27.0911 4.4757 27.2862 4.01048 27.6814 3.61559C28.0763 3.22036 28.5414 3.02868 29.1023 3.02868C29.635 3.02868 30.0792 3.22002 30.4606 3.61271C30.8439 4.00861 31.0368 4.47299 31.049 5.03007C31.0614 5.61918 30.867 6.11423 30.4546 6.54556C30.0677 6.9496 29.6191 7.14586 29.0834 7.14586ZM31.3554 2.86445C30.7571 2.24128 30.0196 1.91028 29.1657 1.88215C28.2782 1.84605 27.507 2.15281 26.8723 2.79158C26.239 3.42814 25.918 4.20182 25.918 5.09159C25.918 5.9456 26.2163 6.69284 26.8052 7.3128C27.395 7.93309 28.1195 8.26205 28.9598 8.29104C28.9944 8.29171 29.0293 8.29256 29.0639 8.29256C29.8167 8.29256 30.4828 8.04292 31.049 7.54956V8.15969H32.2162V5.1221V5.08769C32.2447 4.23724 31.9552 3.48916 31.3554 2.86445Z" fill="#5B6871"/>
<path d="M35.6061 1.91257C35.2683 1.89494 34.9362 1.97596 34.617 2.14696C34.4613 2.22967 34.3215 2.32932 34.1984 2.44389V2.02307H33.0814V8.1596H34.2889V4.52816C34.2889 4.19648 34.3442 3.93209 34.4516 3.74601C34.4987 3.66788 34.6075 3.5306 34.8592 3.32553C35.0446 3.1735 35.2951 3.0908 35.6043 3.07893L35.798 3.07198V1.92087L35.6061 1.91257Z" fill="#5B6871"/>
<path d="M45.9836 3.79291L46.1342 3.67749C46.1671 3.65495 46.2007 3.63512 46.2354 3.61597C46.4715 3.4814 46.744 3.40243 47.0359 3.40243C47.4731 3.40243 47.8694 3.57716 48.1604 3.86002C48.4632 4.15424 48.6525 4.56438 48.652 5.01943C48.652 5.91293 47.9277 6.63644 47.0347 6.63644C46.593 6.63644 46.1925 6.45798 45.901 6.17122C45.8707 6.14122 45.8417 6.10919 45.8136 6.07716L45.6892 5.9148L45.6129 5.81565L45.6104 5.81175L44.777 4.72183L45.9836 3.79291ZM40.9815 6.79796C41.4079 6.91202 41.8411 6.8444 42.1974 6.64238C42.2347 6.62119 42.2701 6.59831 42.306 6.57374L42.4686 6.45035L43.6605 5.53855L44.5457 6.68966L44.7753 6.98896C44.8269 7.04794 44.8792 7.10624 44.9355 7.16149C45.4728 7.69095 46.2097 8.01821 47.0233 8.01872C48.6673 8.01872 49.9999 6.68627 49.9999 5.04181C50.0002 3.39836 48.668 2.06472 47.0243 2.06472C46.4878 2.06472 45.9853 2.20895 45.5509 2.45639C45.4878 2.493 45.4251 2.5296 45.3653 2.57011L45.0885 2.78264L43.9559 3.64766L42.856 4.48303L40.3087 6.42697C40.4941 6.5978 40.7214 6.72779 40.9815 6.79796Z" fill="#E13C31"/>
<path d="M45.6104 5.81213L45.6104 5.81218L45.6104 5.81213Z" fill="#E33C2D"/>
<path d="M42.4514 6.46441L42.3014 6.58C42.2686 6.60237 42.2347 6.62186 42.2003 6.64169C41.9643 6.77625 41.6916 6.85438 41.4003 6.85438C40.9625 6.85438 40.5666 6.67999 40.275 6.39798C39.9724 6.10427 39.7833 5.6926 39.7833 5.23822C39.7833 4.34506 40.5073 3.62105 41.4003 3.62105C41.8423 3.62105 42.2428 3.79849 42.5343 4.08644C42.5646 4.11593 42.5933 4.14779 42.6214 4.1805L42.7463 4.34235L42.8224 4.44116L42.825 4.44472L43.6586 5.53549L42.4514 6.46441ZM47.4535 3.45885C47.0269 3.34462 46.5942 3.41242 46.2381 3.61376C46.2005 3.63562 46.1649 3.65901 46.1295 3.6824L45.9671 3.80646L44.7752 4.71826L43.8896 3.56681L43.6602 3.26819C43.6083 3.20972 43.5559 3.15091 43.4998 3.09532C42.9629 2.5662 42.2257 2.23843 41.412 2.23843C39.7677 2.23843 38.4353 3.57139 38.4353 5.21568C38.4353 6.85964 39.7677 8.19209 41.412 8.19209C41.9482 8.19209 42.4502 8.04803 42.8851 7.79991C42.9478 7.76364 43.0105 7.72755 43.071 7.68704L43.3471 7.474L44.4796 6.60881L45.5797 5.77344L48.1266 3.829C47.9412 3.65901 47.7141 3.528 47.4535 3.45885Z" fill="#5B6871"/>
<path d="M42.8226 4.4412L42.8226 4.44115L42.8226 4.4412Z" fill="#767A82"/>
</svg>
