<svg width="51" height="25" viewBox="0 0 51 25" fill="none" xmlns="http://www.w3.org/2000/svg">
<path d="M22.7076 22.9372C22.9325 23.7002 23.5669 24.0537 24.3379 24.0537C24.6673 24.0537 25.0689 23.9814 25.3259 23.7805C25.5347 23.6198 25.6631 23.3388 25.6631 23.0737C25.6631 22.5197 25.2054 22.2946 24.7235 22.1741L23.8079 21.9492C23.4385 21.8609 23.1011 21.7725 22.812 21.5076C22.5229 21.2504 22.3622 20.8731 22.3622 20.4875C22.3622 19.4274 23.2778 18.9695 24.2335 18.9695C25.1573 18.9695 25.8963 19.4274 26.1934 20.3189L25.5668 20.4875C25.4465 19.8851 24.804 19.5158 24.2176 19.5158C23.6955 19.5158 23.0369 19.7886 23.0369 20.391C23.0369 21.0094 23.5188 21.1461 24.0328 21.2664L24.86 21.4673C25.2215 21.5478 25.5829 21.652 25.864 21.8931C26.2094 22.1741 26.378 22.5516 26.378 22.9853C26.378 23.4835 26.1613 23.9331 25.7596 24.2384C25.3582 24.5434 24.82 24.64 24.3219 24.64C23.1976 24.64 22.4585 24.1419 22.0892 23.0737L22.7076 22.9372Z" fill="#0E206C"/>
<path d="M27.9999 24.5595H27.3736V20.4792H27.9999V24.5595ZM28.0322 19.7564H27.3415V19.0496H28.0322V19.7564Z" fill="#0E206C"/>
<path d="M29.8008 21.2341H29.817C30.0497 20.728 30.5076 20.3747 31.0859 20.3747C31.5758 20.3747 31.9855 20.5835 32.2425 21.0092C32.4514 21.3547 32.4353 21.9006 32.4353 22.3023V24.5593H31.8088V22.0373C31.8088 21.7964 31.8169 21.4912 31.6962 21.2822C31.5599 21.0494 31.2627 20.9129 30.9976 20.9129C30.6682 20.9129 30.371 21.0654 30.1542 21.3224C29.8891 21.6436 29.833 22.0132 29.833 22.4228V24.5593H29.2065V20.4791H29.8008V21.2341Z" fill="#0E206C"/>
<path d="M35.4953 24.5908L34.893 24.639C34.0015 24.639 33.7364 24.1169 33.7364 23.3057V20.9442H33.0135V20.4464H33.7364V19.4345L34.3629 19.3701V20.4464H35.2706V20.9442H34.3629V23.4101C34.3629 23.8839 34.4994 24.1329 35.0136 24.1329L35.4953 24.0927V24.5908Z" fill="#0E206C"/>
<path d="M38.8358 22.1015C38.8439 21.427 38.4662 20.8564 37.7436 20.8564C37.0608 20.8564 36.6191 21.4588 36.5949 22.1015H38.8358ZM39.4625 23.4428C39.2215 24.1898 38.5066 24.6398 37.7275 24.6398C36.4905 24.6398 35.856 23.6598 35.856 22.5192C35.856 21.3946 36.5228 20.3747 37.7436 20.3747C39.0127 20.3747 39.5588 21.435 39.5267 22.5674H36.5628C36.5628 22.8886 36.5789 23.1858 36.7314 23.491C36.9242 23.8765 37.3499 24.1096 37.7757 24.1096C38.3057 24.1096 38.6913 23.8042 38.868 23.3223L39.4625 23.4428Z" fill="#0E206C"/>
<path d="M42.4012 24.5908L41.7988 24.639C40.9072 24.639 40.6421 24.1169 40.6421 23.3057V20.9442H39.9194V20.4464H40.6421V19.4345L41.2686 19.3701V20.4464H42.1763V20.9442H41.2686V23.4101C41.2686 23.8839 41.4053 24.1329 41.9193 24.1329L42.4012 24.0927V24.5908Z" fill="#0E206C"/>
<path d="M43.744 24.5595H43.1176V20.4792H43.744V24.5595ZM43.7763 19.7564H43.0855V19.0496H43.7763V19.7564Z" fill="#0E206C"/>
<path d="M46.4007 24.6398C45.0554 24.6398 44.4763 23.5874 44.4763 22.5194C44.4763 21.459 45.0644 20.3747 46.4097 20.3747C47.3414 20.3747 47.9175 20.9972 48.0614 21.8405L47.4515 21.8929C47.3922 21.3547 47.0449 20.9049 46.4265 20.9049H46.4274C45.4832 20.9049 45.1784 21.7299 45.1784 22.4792C45.1784 23.2375 45.4387 24.1014 46.3829 24.1014H46.3842C46.9781 24.1014 47.4181 23.6836 47.4702 23.093L48.0489 23.1452C47.9768 23.9085 47.3744 24.6398 46.4013 24.6398H46.4007Z" fill="#0E206C"/>
<path d="M49.5251 24.5595H48.8987V20.4792H49.5251V24.5595ZM49.5573 19.7564H48.8666V19.0496H49.5573V19.7564Z" fill="#0E206C"/>
<path d="M22.4032 10.7557V5.2459H25.7765V5.84032H23.0939V7.59116H25.3187V8.14537H23.0939V10.7557H22.4032Z" fill="#0E206C"/>
<path d="M31.6064 7.07859C30.9638 7.07859 30.49 7.72911 30.49 8.41191V8.90192C30.49 9.31961 30.5623 9.62476 30.7228 9.8657C30.9156 10.1469 31.261 10.3315 31.6064 10.3315C32.4416 10.3315 32.6827 9.44008 32.6827 8.76539C32.6827 8.08259 32.4738 7.07859 31.6064 7.07859ZM30.1688 10.7572H29.8635V5.2475H30.49V7.35181H30.5221C30.7791 6.86974 31.1405 6.57253 31.7189 6.57253C32.2168 6.57253 32.6986 6.83764 32.9718 7.23945C33.2448 7.64092 33.3574 8.18701 33.3574 8.66097C33.3574 9.69708 32.8594 10.8376 31.6545 10.8376C31.1164 10.8376 30.6505 10.5164 30.4016 10.0585L30.1688 10.7572Z" fill="#0E206C"/>
<path d="M35.9455 7.07859C35.3029 7.07859 34.8292 7.72911 34.8292 8.41191V8.90192C34.8292 9.31961 34.9015 9.62476 35.062 9.8657C35.2548 10.1469 35.6002 10.3315 35.9455 10.3315C36.7807 10.3315 37.0218 9.44008 37.0218 8.76539C37.0218 8.08259 36.813 7.07859 35.9455 7.07859ZM34.508 10.7572H34.2025V5.2475H34.8292V7.35181H34.8613C35.1183 6.86974 35.4797 6.57253 36.0581 6.57253C36.556 6.57253 37.0377 6.83764 37.311 7.23945C37.584 7.64092 37.6965 8.18701 37.6965 8.66097C37.6965 9.69708 37.1986 10.8376 35.9937 10.8376C35.4557 10.8376 34.9897 10.5164 34.7408 10.0585L34.508 10.7572Z" fill="#0E206C"/>
<path d="M39.1805 6.67711V7.63278H39.1967C39.3895 7.07857 39.7349 6.56458 40.3935 6.56458L40.6264 6.5808V7.18317H40.498C40.0159 7.18317 39.6786 7.416 39.4456 7.82558C39.277 8.12279 39.2447 8.37979 39.2447 8.70117V10.7573H38.6184V6.67711H39.1805Z" fill="#0E206C"/>
<path d="M41.8887 10.7573H41.2622V6.67712H41.8887V10.7573ZM41.9208 5.95428H41.2301V5.2475H41.9208V5.95428Z" fill="#0E206C"/>
<path d="M44.5451 10.8377C43.2 10.8377 42.6209 9.7855 42.6209 8.7173C42.6209 7.65702 43.209 6.57259 44.5541 6.57259C45.486 6.57259 46.062 7.19524 46.2058 8.03855L45.596 8.09076C45.5366 7.5526 45.1893 7.10281 44.571 7.10281H44.5719C43.6275 7.10281 43.3229 7.92778 43.3229 8.67708C43.3229 9.43537 43.5831 10.2995 44.5273 10.2995H44.5287C45.1224 10.2995 45.5627 9.88164 45.6145 9.29091L46.1935 9.3433C46.1211 10.1064 45.5189 10.8377 44.5456 10.8377H44.5451Z" fill="#0E206C"/>
<path d="M49.3112 9.28915C49.3091 9.30114 49.307 9.31331 49.3047 9.32654C49.2144 9.83366 48.9515 10.3475 48.2583 10.3475C47.795 10.3475 47.3746 10.1155 47.3746 9.6324C47.3746 8.67955 48.6732 8.69613 49.3024 8.70054H49.3465C49.3509 8.86775 49.3454 9.07678 49.3112 9.28915ZM49.913 9.89751V8.31531C49.913 8.10188 49.9725 6.57259 48.4344 6.57259C46.8303 6.57259 46.8125 7.6893 46.8125 7.6893L47.399 7.78508C47.399 7.78508 47.5046 7.0379 48.3508 7.0379C49.1165 7.0379 49.2661 7.43178 49.2959 8.22729C48.3033 8.22729 46.7003 8.26362 46.7003 9.60047C46.7003 10.1706 47.0996 10.8371 48.122 10.8371C49.1442 10.8371 49.3167 10.0326 49.3167 10.0326C49.3387 10.6345 49.374 10.7569 49.374 10.7569H50.0011C50.0011 10.7569 49.913 10.384 49.913 9.89751Z" fill="#0E206C"/>
<path d="M28.1932 9.28915C28.1909 9.30114 28.1888 9.31331 28.1865 9.32654C28.0964 9.83384 27.8334 10.3477 27.1402 10.3477C26.677 10.3477 26.2566 10.1155 26.2566 9.6324C26.2566 8.67955 27.555 8.69613 28.1842 8.70054H28.2283C28.2327 8.86775 28.2273 9.07678 28.1932 9.28915ZM28.7951 9.89769V8.31531C28.7951 8.10205 28.8545 6.57259 27.3162 6.57259C25.7121 6.57259 25.6945 7.6893 25.6945 7.6893L26.2808 7.78508C26.2808 7.78508 26.3865 7.0379 27.2326 7.0379C27.9985 7.0379 28.1481 7.43195 28.1777 8.22729C27.1853 8.22729 25.5821 8.2638 25.5821 9.60047C25.5821 10.1706 25.9817 10.8371 27.0038 10.8371C28.026 10.8371 28.1987 10.0326 28.1987 10.0326C28.2206 10.6345 28.2558 10.7569 28.2558 10.7569H28.8831C28.8831 10.7569 28.7951 10.384 28.7951 9.89769Z" fill="#0E206C"/>
<path d="M23.1326 12.1277H22.4417V17.6376H23.1326V12.1277Z" fill="#0E206C"/>
<path d="M26.3399 17.6704L25.7375 17.7185C24.846 17.7185 24.5809 17.1964 24.5809 16.3854V14.0239H23.8581V13.5259H24.5809V12.514L25.2073 12.4498V13.5259H26.1151V14.0239H25.2073V16.4898C25.2073 16.9636 25.344 17.2125 25.858 17.2125L26.3399 17.1724V17.6704Z" fill="#0E206C"/>
<path d="M29.5583 15.5813H29.0362C28.3936 15.5813 27.3815 15.6697 27.3815 16.513C27.3815 17.0189 27.8154 17.2279 28.2652 17.2279C29.0362 17.2279 29.5583 16.5693 29.5583 15.8464V15.5813ZM29.5583 15.1073V14.9308C29.5583 14.2159 29.245 13.9428 28.5222 13.9428C28.0082 13.9428 27.5182 14.1033 27.4058 14.6657L26.8195 14.5694C26.9317 13.7179 27.8314 13.4528 28.5783 13.4528C29.0201 13.4528 29.526 13.501 29.8313 13.8545C30.1688 14.2159 30.1688 14.7299 30.1688 15.1957V16.7781C30.1688 17.0753 30.1767 17.3724 30.257 17.6375H29.6304L29.5583 16.8744C29.269 17.4607 28.7792 17.7177 28.1286 17.7177C27.3654 17.7177 26.707 17.2921 26.707 16.4809C26.707 15.9909 27.0121 15.549 27.4619 15.3485C27.9198 15.1315 28.5222 15.1073 29.0281 15.1073H29.5583Z" fill="#0E206C"/>
<path d="M32.0184 12.1277H31.392V17.6376H32.0184V12.1277Z" fill="#0E206C"/>
<path d="M33.9444 17.6376H33.3181V13.5573H33.9444V17.6376ZM33.9767 12.8345H33.2859V12.1277H33.9767V12.8345Z" fill="#0E206C"/>
<path d="M39.8311 14.3124H39.8473C40.0802 13.8063 40.5381 13.4528 41.1163 13.4528C41.6061 13.4528 42.0158 13.6618 42.2728 14.0875C42.4817 14.4328 42.4656 14.9789 42.4656 15.3806V17.6376H41.8393V15.1155C41.8393 14.8747 41.8472 14.5694 41.7267 14.3603C41.5902 14.1275 41.293 13.9912 41.0279 13.9912C40.6986 13.9912 40.4014 14.1437 40.1846 14.4007C39.9196 14.7219 39.8634 15.0913 39.8634 15.5009V17.6376H39.2368V13.5574H39.8311V14.3124Z" fill="#0E206C"/>
<path d="M45.9368 16.1694C45.9347 16.1814 45.9326 16.1935 45.9303 16.2068C45.8399 16.7139 45.5771 17.2277 44.8837 17.2277C44.4205 17.2277 44.0002 16.9958 44.0002 16.5126C44.0002 15.5598 45.2988 15.5764 45.928 15.5806H45.9721C45.9765 15.7478 45.9708 15.957 45.9368 16.1694ZM46.5386 16.7777V15.1955C46.5386 14.9821 46.5981 13.4528 45.0598 13.4528C43.4557 13.4528 43.4381 14.5695 43.4381 14.5695L44.0246 14.6653C44.0246 14.6653 44.1302 13.9181 44.9764 13.9181C45.7421 13.9181 45.8916 14.312 45.9214 15.1075C44.9289 15.1075 43.3259 15.1439 43.3259 16.4807C43.3259 17.0506 43.7252 17.7174 44.7474 17.7174C45.7696 17.7174 45.9423 16.9129 45.9423 16.9129C45.9643 17.5147 45.9994 17.6371 45.9994 17.6371H46.6266C46.6266 17.6371 46.5386 17.264 46.5386 16.7777Z" fill="#0E206C"/>
<path d="M37.5121 16.1694C37.5098 16.1814 37.5077 16.1935 37.5054 16.2068C37.4153 16.7139 37.1523 17.2277 36.4591 17.2277C35.9959 17.2277 35.5756 16.9958 35.5756 16.5126C35.5756 15.5598 36.874 15.5764 37.5031 15.5806H37.5472C37.5516 15.7478 37.5462 15.957 37.5121 16.1694ZM38.1138 16.7777V15.1955C38.1138 14.9821 38.1732 13.4528 36.6351 13.4528C35.031 13.4528 35.0132 14.5695 35.0132 14.5695L35.5997 14.6653C35.5997 14.6653 35.7054 13.9181 36.5515 13.9181C37.3174 13.9181 37.467 14.312 37.4966 15.1075C36.5041 15.1075 34.901 15.1439 34.901 16.4807C34.901 17.0506 35.3006 17.7174 36.3227 17.7174C37.3449 17.7174 37.5176 16.9129 37.5176 16.9129C37.5395 17.5147 37.5747 17.6371 37.5747 17.6371H38.202C38.202 17.6371 38.1138 17.264 38.1138 16.7777Z" fill="#0E206C"/>
<path d="M10.7392 0.427037C9.75711 -0.142346 8.54462 -0.142346 7.56213 0.427037L1.59085 3.87349C0.60854 4.44288 0 5.49027 0 6.62463V13.4567L1.63847 14.3997V10.0536H5.55448V8.41956H1.63847V6.65497C1.63847 6.08576 1.94292 5.56418 2.43399 5.27737L8.35765 1.85684C8.84871 1.57445 9.45284 1.57445 9.94408 1.85684L12.8818 3.55194L14.5159 2.60438L10.7392 0.427037ZM9.96966 5.23363H8.33119V14.9334H9.96966V5.23363ZM19.0295 12.7601C19.0295 12.9005 19.02 13.0443 19.0008 13.1873C18.8342 14.4097 17.9782 15.4756 16.3837 16.4467C16.3816 16.4482 16.3757 16.4519 16.3676 16.4558L10.7851 19.6948C10.2803 19.9878 9.71407 20.1344 9.14804 20.1344C8.58148 20.1344 8.01545 19.9878 7.51027 19.6947L1.70021 16.3225H4.96534L8.39204 18.3114C8.85806 18.5815 9.43714 18.5817 9.90299 18.3113L15.3291 15.1618C16.7811 14.3166 17.3432 13.6206 17.3432 12.6739C17.3432 11.6106 16.2833 11.2331 15.0558 10.7959C13.6244 10.2861 12.0022 9.70825 12.0022 7.81261C12.0022 5.95241 13.3897 4.75067 15.5372 4.75067C17.1728 4.75067 18.1163 5.53649 18.1557 5.57L17.3044 6.92572C17.2983 6.92043 16.6827 6.38985 15.3388 6.38985C14.5214 6.38985 13.6481 6.7444 13.6481 7.73976C13.6481 8.62364 14.5928 8.93285 15.6869 9.29092C17.1762 9.7781 19.0295 10.3845 19.0295 12.7601Z" fill="#0E206C"/>
</svg>
