<svg id="Livello_1" data-name="Livello 1" xmlns="http://www.w3.org/2000/svg" viewBox="0 0 295 82"><defs><style>.cls-1{fill:#001b71;}.cls-2{fill:#76c09a;}</style></defs><path class="cls-1" d="M109.65,51q0-9.8-7.21-9.79a12,12,0,0,0-3.1.4,9.36,9.36,0,0,0-2.48,1V61.07c.5.09,1.13.17,1.91.24s1.6.1,2.51.1a7.28,7.28,0,0,0,6.26-2.86A12.38,12.38,0,0,0,109.65,51m10.34.27A22.64,22.64,0,0,1,118.73,59a16.32,16.32,0,0,1-3.64,5.91,15.9,15.9,0,0,1-5.85,3.78,22,22,0,0,1-7.89,1.33c-1.22,0-2.51-.06-3.84-.17s-2.66-.27-4-.45S91,69,89.85,68.79s-2.22-.51-3.12-.78V18l10.13-1.63V34.2A18.57,18.57,0,0,1,100.4,33a18.25,18.25,0,0,1,3.94-.41A16.25,16.25,0,0,1,111.08,34,13.11,13.11,0,0,1,116,37.74a16.84,16.84,0,0,1,3,5.88,26.82,26.82,0,0,1,1,7.65"/><path class="cls-1" d="M147.16,42.36c-.91-.22-2-.46-3.2-.71a19.66,19.66,0,0,0-3.94-.38,18.86,18.86,0,0,0-2.28.17,13.44,13.44,0,0,0-2,.38V69.16H125.6V35.29A59.93,59.93,0,0,1,132,33.48a37.54,37.54,0,0,1,8.27-.85c.54,0,1.2,0,2,.11s1.54.16,2.31.27,1.54.25,2.32.41a10.61,10.61,0,0,1,2,.58Z"/><path class="cls-1" d="M174.37,47.67a10.75,10.75,0,0,0-.45-2.52A6.33,6.33,0,0,0,172.77,43a6.25,6.25,0,0,0-2-1.56,6.42,6.42,0,0,0-3-.61,6.75,6.75,0,0,0-2.93.58,5.93,5.93,0,0,0-2,1.53,7,7,0,0,0-1.26,2.21,14.42,14.42,0,0,0-.64,2.55Zm-23.81,3.88A22,22,0,0,1,152,43.21a18.08,18.08,0,0,1,3.84-6,16.09,16.09,0,0,1,5.48-3.61,17.24,17.24,0,0,1,6.36-1.22q7.62,0,12,4.66t4.42,13.71c0,.59,0,1.23-.07,1.94s-.09,1.32-.13,1.87H161a6.71,6.71,0,0,0,2.92,5,11.72,11.72,0,0,0,6.94,1.84,29.22,29.22,0,0,0,5.47-.51,20.4,20.4,0,0,0,4.39-1.26l1.36,8.23a15.05,15.05,0,0,1-2.17.82,28.34,28.34,0,0,1-3,.71q-1.66.3-3.57.51a34.73,34.73,0,0,1-3.81.2,22.59,22.59,0,0,1-8.4-1.42,16.48,16.48,0,0,1-5.92-3.92,15.53,15.53,0,0,1-3.47-5.88,23.23,23.23,0,0,1-1.12-7.34"/><path class="cls-1" d="M190.34,34.61a55.72,55.72,0,0,1,6.66-1.4,55,55,0,0,1,8.58-.64,21,21,0,0,1,7.58,1.19,11.37,11.37,0,0,1,4.8,3.36,13.35,13.35,0,0,1,2.51,5.17,27.5,27.5,0,0,1,.75,6.67v20.2H211.09v-19c0-3.26-.44-5.57-1.3-6.93s-2.47-2-4.83-2c-.72,0-1.49,0-2.31.1s-1.54.15-2.18.24V69.16H190.34Z"/><path class="cls-1" d="M228.7,24.47l10.14-1.63V33.38H251v8.44H238.84V54.4A10,10,0,0,0,240,59.5c.75,1.27,2.25,1.91,4.52,1.91a18.86,18.86,0,0,0,3.37-.31,16.34,16.34,0,0,0,3.16-.85l1.43,7.89a28,28,0,0,1-4.08,1.29,23.36,23.36,0,0,1-5.51.55A18.28,18.28,0,0,1,236,68.86a10.73,10.73,0,0,1-4.35-3.13,11.63,11.63,0,0,1-2.28-4.87,28.68,28.68,0,0,1-.65-6.32Z"/><path class="cls-1" d="M271.05,62.09c1,0,1.95,0,2.85-.07a18.83,18.83,0,0,0,2.18-.2V54.13c-.41-.09-1-.18-1.84-.27a20.52,20.52,0,0,0-2.24-.14,20.75,20.75,0,0,0-2.69.17,6.89,6.89,0,0,0-2.21.65,3.76,3.76,0,0,0-1.49,1.29,3.53,3.53,0,0,0-.55,2,3.47,3.47,0,0,0,1.6,3.3,8.88,8.88,0,0,0,4.39.92m-.82-29.66a23.45,23.45,0,0,1,7.48,1,11.6,11.6,0,0,1,4.8,2.93A10.78,10.78,0,0,1,285.06,41a22.8,22.8,0,0,1,.75,6.06V68.14q-2.18.48-6.06,1.12a58.11,58.11,0,0,1-9.38.65,29.56,29.56,0,0,1-6.29-.61,13.65,13.65,0,0,1-4.87-2,9.2,9.2,0,0,1-3.13-3.64A12.61,12.61,0,0,1,255,58.14a10.42,10.42,0,0,1,1.26-5.3,9.67,9.67,0,0,1,3.37-3.47,15.2,15.2,0,0,1,4.83-1.87,26.73,26.73,0,0,1,5.65-.58,32.92,32.92,0,0,1,3.5.17,15.47,15.47,0,0,1,2.48.44v-1a5.62,5.62,0,0,0-1.56-4.15c-1-1-2.86-1.57-5.45-1.57a34.6,34.6,0,0,0-5.1.38,22.21,22.21,0,0,0-4.35,1l-1.29-8.16c.59-.18,1.32-.37,2.21-.58s1.85-.38,2.89-.54,2.14-.3,3.3-.41,2.32-.17,3.5-.17"/><circle class="cls-2" cx="37.21" cy="42.75" r="4.94"/><path class="cls-1" d="M37.21,16.29A26.25,26.25,0,0,0,25,19.3V34.85a14.55,14.55,0,1,1-2.36,7.9V36.11h0V19.89c-.08-8.54-4.51-12.1-11.87-12.1V42.71h0v0A26.47,26.47,0,1,0,37.21,16.29Z"/></svg>