<?xml version="1.0" encoding="UTF-8" standalone="no"?>
<!DOCTYPE svg PUBLIC "-//W3C//DTD SVG 1.1//EN" "http://www.w3.org/Graphics/SVG/1.1/DTD/svg11.dtd">
<svg width="100%" height="100%" viewBox="0 0 2778 2481" version="1.1" xmlns="http://www.w3.org/2000/svg" xmlns:xlink="http://www.w3.org/1999/xlink" xml:space="preserve" xmlns:serif="http://www.serif.com/" style="fill-rule:evenodd;clip-rule:evenodd;stroke-linejoin:round;stroke-miterlimit:1.41421;">
    <g id="Layer-1" serif:id="Layer 1" transform="matrix(4.16667,0,0,4.16667,0,0)">
        <g transform="matrix(1,0,0,1,109.568,225.496)">
            <path d="M0,123.098L-17.432,123.098L-17.432,46.136C-17.432,35.065 -19.842,27.277 -24.667,22.772C-29.491,18.263 -35.336,16.011 -42.218,16.011C-51.705,16.011 -59.669,19.809 -66.111,27.396C-72.558,34.984 -75.779,44.991 -75.779,57.398L-75.779,123.098L-94.395,123.098L-94.395,3.322L-77.082,3.322L-77.082,25.383C-67.356,8.461 -54.749,0 -39.25,0C-30.316,0 -22.71,2.315 -16.425,6.939C-10.141,11.563 -5.832,16.764 -3.498,22.534C-1.165,28.308 0,38.744 0,53.843L0,123.098Z" style="fill:rgb(177,167,162);fill-rule:nonzero;"/>
        </g>
        <g transform="matrix(1,0,0,1,0,-59.962)">
            <path d="M156.848,408.556L138.232,408.556L138.232,288.78L156.848,288.78L156.848,408.556ZM157.444,267.435L137.402,267.435L137.402,246.682L157.444,246.682L157.444,267.435Z" style="fill:rgb(177,167,162);fill-rule:nonzero;"/>
        </g>
        <g transform="matrix(1,0,0,1,283.12,225.496)">
            <path d="M0,123.098L-17.432,123.098L-17.432,46.136C-17.432,35.065 -19.842,27.277 -24.667,22.772C-29.491,18.263 -35.336,16.011 -42.218,16.011C-51.705,16.011 -59.669,19.809 -66.111,27.396C-72.558,34.984 -75.779,44.991 -75.779,57.398L-75.779,123.098L-94.395,123.098L-94.395,3.322L-77.082,3.322L-77.082,25.383C-67.356,8.461 -54.749,0 -39.25,0C-30.316,0 -22.71,2.315 -16.425,6.939C-10.141,11.563 -5.832,16.764 -3.498,22.534C-1.165,28.308 0,38.744 0,53.843L0,123.098Z" style="fill:rgb(177,167,162);fill-rule:nonzero;"/>
        </g>
        <g transform="matrix(1,0,0,1,388.395,300.921)">
            <path d="M0,-24.431C-0.162,-31.15 -1.265,-37.12 -3.321,-42.336C-5.378,-47.556 -8.856,-52.004 -13.758,-55.678C-18.658,-59.352 -24.547,-61.19 -31.429,-61.19C-40.677,-61.19 -48.526,-57.873 -54.968,-51.231C-61.411,-44.588 -65.028,-35.655 -65.82,-24.431L0,-24.431ZM1.064,11.979L18.382,15.534C15.218,25.77 9.053,34.236 -0.119,40.941C-9.291,47.645 -20.085,50.994 -32.492,50.994C-48.86,50.994 -62.103,45.239 -72.224,33.725C-82.345,22.21 -87.403,7.116 -87.403,-11.561C-87.403,-30.635 -82.145,-46.043 -71.627,-57.797C-61.115,-69.546 -47.911,-75.425 -32.02,-75.425C-16.368,-75.425 -3.779,-70.009 5.75,-59.176C15.275,-48.344 20.162,-32.138 20.396,-10.555L-66.65,-10.555C-66.65,7.551 -62.852,19.767 -55.264,26.09C-47.672,32.417 -39.65,35.576 -31.189,35.576C-15.934,35.576 -5.183,27.712 1.064,11.979" style="fill:rgb(177,167,162);fill-rule:nonzero;"/>
        </g>
        <g transform="matrix(1,0,0,1,66.1714,374.923)">
            <path d="M0,122.858L0,137.561C-6.566,138.434 -12.259,138.869 -17.079,138.869C-40.247,138.869 -51.824,126.757 -51.824,102.54L-51.824,30.358L-66.171,30.358L-66.171,15.77L-51.824,15.77L-51.23,-5.893L-33.681,-16.011L-33.681,15.77L-6.881,15.77L-6.881,30.358L-33.681,30.358L-33.681,105.636C-33.681,117.986 -27.276,124.161 -14.469,124.161C-10.202,124.161 -5.378,123.727 0,122.858" style="fill:rgb(177,167,162);fill-rule:nonzero;"/>
        </g>
        <g transform="matrix(1,0,0,1,103.07,387.138)">
            <path d="M0,123.332L-18.616,123.332L-18.616,3.555L-2.252,3.555L-2.252,31.543C3.517,18.339 9.31,9.782 15.123,5.869C20.935,1.956 26.88,0 32.97,0C34.869,0 37.317,0.157 40.323,0.473L40.323,18.262L36.529,18.262C26.25,18.262 17.709,22.099 10.914,29.763C4.113,37.436 0.477,47.515 0,60.003L0,123.332Z" style="fill:rgb(177,167,162);fill-rule:nonzero;"/>
        </g>
        <g transform="matrix(1,0,0,1,234.655,462.799)">
            <path d="M0,-24.434C-0.162,-31.153 -1.265,-37.122 -3.321,-42.338C-5.378,-47.559 -8.857,-52.006 -13.758,-55.68C-18.659,-59.355 -24.547,-61.192 -31.428,-61.192C-40.676,-61.192 -48.526,-57.875 -54.969,-51.233C-61.411,-44.59 -65.028,-35.658 -65.82,-24.434L0,-24.434ZM1.064,11.976L18.382,15.532C15.218,25.767 9.052,34.233 -0.119,40.938C-9.291,47.642 -20.085,50.993 -32.493,50.993C-48.86,50.993 -62.103,45.237 -72.224,33.722C-82.345,22.208 -87.404,7.114 -87.404,-11.564C-87.404,-30.637 -82.145,-46.046 -71.627,-57.799C-61.115,-69.548 -47.911,-75.427 -32.02,-75.427C-16.368,-75.427 -3.779,-70.011 5.75,-59.178C15.275,-48.346 20.162,-32.14 20.396,-10.557L-66.65,-10.557C-66.65,7.548 -62.852,19.764 -55.264,26.087C-47.672,32.415 -39.65,35.574 -31.19,35.574C-15.934,35.574 -5.183,27.71 1.064,11.976" style="fill:rgb(177,167,162);fill-rule:nonzero;"/>
        </g>
        <g transform="matrix(1,0,0,1,357.681,462.799)">
            <path d="M0,-24.434C-0.162,-31.153 -1.265,-37.122 -3.321,-42.338C-5.378,-47.559 -8.857,-52.006 -13.758,-55.68C-18.659,-59.355 -24.547,-61.192 -31.428,-61.192C-40.676,-61.192 -48.526,-57.875 -54.969,-51.233C-61.411,-44.59 -65.028,-35.658 -65.82,-24.434L0,-24.434ZM1.064,11.976L18.382,15.532C15.218,25.767 9.053,34.233 -0.119,40.938C-9.291,47.642 -20.085,50.993 -32.493,50.993C-48.86,50.993 -62.103,45.237 -72.224,33.722C-82.345,22.208 -87.404,7.114 -87.404,-11.564C-87.404,-30.637 -82.145,-46.046 -71.627,-57.799C-61.115,-69.548 -47.911,-75.427 -32.02,-75.427C-16.368,-75.427 -3.779,-70.011 5.75,-59.178C15.275,-48.346 20.161,-32.14 20.396,-10.557L-66.65,-10.557C-66.65,7.548 -62.852,19.764 -55.265,26.087C-47.672,32.415 -39.65,35.574 -31.19,35.574C-15.934,35.574 -5.183,27.71 1.064,11.976" style="fill:rgb(177,167,162);fill-rule:nonzero;"/>
        </g>
        <g transform="matrix(1,0,0,1,389.123,421.765)">
            <path d="M0,57.634L17.79,53.96C21.741,69.059 34.229,76.608 55.265,76.608C63.01,76.608 69.571,74.871 74.949,71.397C80.322,67.923 83.014,63.027 83.014,56.713C83.014,47.318 76.171,41.353 62.489,38.828L37.236,34.037C27.354,32.138 19.489,28.42 13.639,22.89C7.788,17.354 4.863,10.038 4.863,0.948C4.863,-9.093 8.853,-17.491 16.841,-24.253C24.824,-31.01 35.575,-34.393 49.095,-34.393C75.106,-34.393 91.154,-24.233 97.244,-3.915L80.165,-0.235C75.264,-12.728 65.186,-18.975 49.925,-18.975C42.338,-18.975 36.11,-17.415 31.247,-14.299C26.385,-11.178 23.956,-6.816 23.956,-1.209C23.956,7.639 30.164,13.202 42.581,15.493L65.935,19.688C90.367,24.121 102.579,35.96 102.579,55.2C102.579,66.21 98.031,75.1 88.94,81.871C79.85,88.638 67.753,92.027 52.654,92.027C24.271,92.027 6.72,80.564 0,57.634" style="fill:rgb(177,167,162);fill-rule:nonzero;"/>
        </g>
        <g transform="matrix(1,0,0,1,55.7583,552.67)">
            <path d="M0,41.996L-6.305,41.996L-8.019,37.586C-10.651,41.139 -15.059,42.606 -19.405,42.606C-31.649,42.606 -38.2,33.181 -38.2,21.672C-38.2,16.161 -36.792,10.406 -33.302,6.062C-29.323,1.042 -24.241,-0.61 -18.059,-0.61C-8.326,-0.61 -1.836,4.346 0,13.959L-12.487,15.242C-12.977,11.878 -14.387,8.693 -18.305,8.693C-24.241,8.693 -24.61,16.652 -24.61,20.938C-24.61,23.386 -24.487,26.447 -23.507,28.651C-22.466,31.099 -20.446,32.692 -17.753,32.692C-14.446,32.692 -11.998,30.672 -11.998,27.365L-18.916,27.365L-18.916,18.488L0,18.488L0,41.996Z" style="fill:rgb(0,92,94);fill-rule:nonzero;"/>
        </g>
        <g transform="matrix(1,0,0,1,102.436,577.707)">
            <path d="M0,-8.079L4.713,-8.079C7.53,-8.079 10.897,-8.509 10.897,-12.12C10.897,-13.529 10.162,-14.877 8.877,-15.55C7.774,-16.099 6.428,-16.099 5.203,-16.099L0,-16.099L0,-8.079ZM0,16.958L-13.039,16.958L-13.039,-25.037L8.326,-25.037C12,-25.037 16.039,-24.549 19.161,-22.467C22.651,-20.263 24.303,-16.529 24.303,-12.427C24.303,-6.918 21.854,-3.611 16.897,-1.346L24.487,16.958L10.162,16.958L4.041,0.917L0,0.917L0,16.958Z" style="fill:rgb(0,92,94);fill-rule:nonzero;"/>
        </g>
        <g transform="matrix(1,0,0,1,170.773,573.485)">
            <path d="M0,0.365C0,4.406 0.428,12.18 6.305,12.18C12.182,12.18 12.61,4.406 12.61,0.365C12.61,-3.737 11.998,-11.938 6.305,-11.938C0.611,-11.938 0,-3.737 0,0.365M26.384,0.303C26.384,12.242 19.038,21.791 6.305,21.791C-6.428,21.791 -13.774,12.242 -13.774,0.303C-13.774,-12.245 -6.49,-21.426 6.305,-21.426C19.1,-21.426 26.384,-12.245 26.384,0.303" style="fill:rgb(0,92,94);fill-rule:nonzero;"/>
        </g>
        <g transform="matrix(1,0,0,1,263.583,568.281)">
            <path d="M0,11.385C0,16.282 -0.551,20.2 -4.592,23.447C-8.203,26.262 -12.61,26.995 -17.018,26.995C-20.875,26.995 -25.895,26.139 -29.139,23.995C-33.608,21.057 -34.464,17.081 -34.464,12.061L-34.464,-15.61L-21.364,-15.61L-21.364,10.59C-21.364,11.999 -21.426,13.897 -20.569,15.18C-19.59,16.529 -17.631,17.081 -15.977,17.081C-14.508,17.081 -12.672,16.652 -11.57,15.672C-9.918,14.262 -10.101,12.061 -10.101,10.102L-10.101,-15.61L0,-15.61L0,11.385Z" style="fill:rgb(0,92,94);fill-rule:nonzero;"/>
        </g>
        <g transform="matrix(1,0,0,1,314.386,576.911)">
            <path d="M0,-6.487C2.938,-6.487 6.489,-6.672 6.489,-10.59C6.489,-14.323 3.305,-14.631 0.367,-14.631L-3.367,-14.631L-3.367,-6.487L0,-6.487ZM-3.367,17.754L-16.407,17.754L-16.407,-24.241L0.735,-24.241C4.836,-24.241 9.428,-24.118 13.039,-22.036C16.957,-19.712 19.284,-15.549 19.284,-11.019C19.284,-7.041 17.753,-3.245 14.63,-0.733C11.387,1.898 7.223,2.512 3.182,2.512L-3.367,2.512L-3.367,17.754Z" style="fill:rgb(0,92,94);fill-rule:nonzero;"/>
        </g>
        <g transform="matrix(1,0,0,1,649.305,182.079)">
            <path d="M0,11.276L-111.352,206.764C-114.138,211.656 -121.334,211.19 -123.467,205.98L-153.769,131.962C-154.555,130.041 -154.414,127.865 -153.387,126.061L-99.306,31.147C-98.726,30.129 -98.42,28.977 -98.42,27.804L-98.42,4.93C-98.42,2.519 -97.135,0.291 -95.047,-0.916L-60.991,-20.598C-58.903,-21.804 -57.618,-24.032 -57.618,-26.443L-57.618,-79.911C-57.618,-82.324 -58.905,-84.553 -60.994,-85.759L-107.311,-112.493C-109.4,-113.698 -111.974,-113.698 -114.063,-112.492L-160.356,-85.759C-162.445,-84.553 -163.732,-82.324 -163.732,-79.912L-163.732,-26.443C-163.732,-24.032 -162.446,-21.804 -160.359,-20.598L-126.351,-0.94C-124.263,0.267 -122.978,2.495 -122.978,4.906L-122.978,32.372C-122.978,35.114 -124.636,37.584 -127.173,38.622L-172.747,57.261C-174.713,58.066 -176.963,57.923 -178.777,56.817C-238.308,20.505 -258.287,-56.885 -223.232,-117.609C-187.646,-179.253 -108.805,-200.38 -47.161,-164.795C14.482,-129.185 35.586,-50.368 0,11.276" style="fill:rgb(0,92,94);fill-rule:nonzero;"/>
        </g>
    </g>
</svg>
