<?xml version="1.0" encoding="UTF-8" standalone="no"?>
<!DOCTYPE svg PUBLIC "-//W3C//DTD SVG 1.1//EN" "http://www.w3.org/Graphics/SVG/1.1/DTD/svg11.dtd">
<svg width="100%" height="100%" viewBox="0 0 4961 3508" version="1.1" xmlns="http://www.w3.org/2000/svg" xmlns:xlink="http://www.w3.org/1999/xlink" xml:space="preserve" xmlns:serif="http://www.serif.com/" style="fill-rule:evenodd;clip-rule:evenodd;stroke-linejoin:round;stroke-miterlimit:1.41421;">
    <g id="Layer-1" serif:id="Layer 1" transform="matrix(4.16667,0,0,4.16667,0,0)">
        <g transform="matrix(1,0,0,1,595.449,584.11)">
            <path d="M0,-311.569L136.373,-228.077L136.424,-83.268L0,0.004L-136.764,-83.358L-136.775,-227.982L0,-311.569ZM0.06,-318.173L0.002,-318.208L-142.384,-231.13L-142.376,-80.209L-0.055,6.604L0.002,6.639L142.036,-80.12L141.984,-231.22L0.06,-318.173Z" style="fill:rgb(189,225,242);fill-rule:nonzero;"/>
        </g>
        <g transform="matrix(-3.45688e-05,-1,-1,3.45688e-05,529.818,427.367)">
            <path d="M-73.398,71.141L71.241,71.141L72.874,73.395L-75.132,73.38L-73.398,71.141Z" style="fill:rgb(157,189,206);fill-rule:nonzero;"/>
        </g>
        <g transform="matrix(-0.852926,0.522032,0.522032,0.852926,489.388,385.965)">
            <path d="M-151.128,-44.051L11.692,-44.051L10.621,-41.483L-149.673,-41.375L-151.128,-44.051Z" style="fill:rgb(157,189,206);fill-rule:nonzero;"/>
        </g>
        <g transform="matrix(0.853346,-0.521345,-0.521345,-0.853346,626.534,614.555)">
            <path d="M-10.829,42.123L149.463,42.123L150.338,39.455L-12.37,39.61L-10.829,42.123Z" style="fill:rgb(157,189,206);fill-rule:nonzero;"/>
        </g>
        <g transform="matrix(-0.853564,-0.520987,-0.520987,0.853564,627.176,240.979)">
            <path d="M-150.629,40.954L12.356,40.954L10.638,43.469L-149.264,43.687L-150.629,40.954Z" style="fill:rgb(101,123,133);fill-rule:nonzero;"/>
        </g>
        <g transform="matrix(-0.853414,-0.521234,-0.521234,0.853414,487.593,473.44)">
            <path d="M-149.689,38.377L10.435,38.377L11.438,41.04L-151.239,40.931L-149.689,38.377Z" style="fill:rgb(101,123,133);fill-rule:nonzero;"/>
        </g>
        <g transform="matrix(0.00106012,-0.999999,-0.999999,-0.00106012,807.166,427.401)">
            <path d="M-75.185,72.833L72.912,72.833L71.288,75.42L-73.476,75.202L-75.185,72.833Z" style="fill:rgb(157,189,206);fill-rule:nonzero;"/>
        </g>
        <g transform="matrix(0.706995,0.707218,0.707218,-0.706995,498.149,476.686)">
            <path d="M-2.147,2.005L2.346,2.005L-7.084,-7.428L-6.957,-2.807L-2.147,2.005Z" style="fill:rgb(14,22,85);fill-rule:nonzero;"/>
        </g>
        <g transform="matrix(0.707218,0.706995,0.706995,-0.707218,512.302,442.538)">
            <path d="M-13.315,-6.825L-8.823,-6.825L16.48,-32.153L11.987,-32.151L-13.315,-6.825Z" style="fill:rgb(118,124,167);fill-rule:nonzero;"/>
        </g>
        <g transform="matrix(0.687595,-0.726095,-0.726095,-0.687595,502.891,438.66)">
            <path d="M2.392,8.915L7.015,8.915L20.66,-5.494L18.284,-7.867L2.392,8.915Z" style="fill:white;fill-rule:nonzero;"/>
        </g>
        <g transform="matrix(0.706995,0.707218,0.707218,-0.706995,513.588,393.351)">
            <path d="M-14.586,-7.353L-10.094,-7.353L15.376,-32.83L15.503,-37.452L-14.586,-7.353Z" style="fill:rgb(118,124,167);fill-rule:nonzero;"/>
        </g>
        <g transform="matrix(-26.592,46.0586,46.0586,26.592,528.659,387.086)">
            <path d="M0.328,-0.405L0.145,-0.087C0.138,-0.075 0.131,-0.063 0.125,-0.052C0.125,-0.052 0.125,-0.052 0.125,-0.052C0.119,-0.04 0.113,-0.03 0.108,-0.019L0.108,-0.019C0.077,0.045 0.064,0.097 0.075,0.144C0.075,0.144 0.075,0.144 0.075,0.144C0.094,0.205 0.154,0.26 0.268,0.327C0.277,0.332 0.286,0.336 0.294,0.341C0.296,0.342 0.298,0.343 0.3,0.344L0.326,0.358C0.334,0.362 0.342,0.366 0.349,0.369C0.351,0.37 0.353,0.371 0.355,0.372L0.379,0.383C0.386,0.386 0.393,0.389 0.4,0.392C0.402,0.392 0.404,0.393 0.405,0.394C0.413,0.396 0.42,0.399 0.427,0.401L0.448,0.407C0.449,0.407 0.451,0.407 0.453,0.408C0.459,0.409 0.466,0.411 0.472,0.412L0.492,0.414C0.493,0.414 0.495,0.414 0.497,0.414C0.503,0.415 0.509,0.415 0.515,0.415L0.534,0.413C0.535,0.413 0.537,0.413 0.538,0.412C0.544,0.411 0.55,0.41 0.556,0.409L0.573,0.403C0.575,0.402 0.576,0.402 0.577,0.401C0.583,0.399 0.589,0.396 0.594,0.393C0.595,0.393 0.596,0.392 0.597,0.392C0.601,0.389 0.606,0.386 0.611,0.383C0.644,0.362 0.656,0.347 0.657,0.347C0.663,0.34 0.681,0.321 0.687,0.314C0.688,0.312 0.69,0.31 0.691,0.309L0.703,0.293L0.715,0.275L0.728,0.257L0.741,0.235L0.915,-0.067L1,-0.088L0.781,0.292C0.778,0.297 0.775,0.302 0.772,0.308L0.772,0.308L0.754,0.336L0.738,0.359L0.724,0.377L0.71,0.394C0.703,0.402 0.696,0.409 0.689,0.416L0.685,0.42C0.678,0.426 0.672,0.432 0.666,0.437L0.646,0.452L0.627,0.464L0.607,0.473L0.588,0.481L0.568,0.486L0.544,0.49C0.544,0.49 0.543,0.49 0.543,0.49C0.535,0.491 0.526,0.492 0.517,0.492C0.516,0.492 0.516,0.492 0.515,0.492L0.493,0.491L0.472,0.488C0.472,0.488 0.471,0.488 0.47,0.488C0.459,0.486 0.448,0.483 0.436,0.48C0.433,0.479 0.429,0.479 0.426,0.478C0.414,0.474 0.402,0.47 0.389,0.466L0.379,0.461C0.372,0.459 0.365,0.456 0.358,0.452C0.353,0.451 0.349,0.449 0.345,0.447C0.338,0.443 0.331,0.44 0.324,0.437C0.32,0.435 0.315,0.433 0.311,0.43C0.303,0.426 0.296,0.422 0.288,0.418C0.284,0.416 0.28,0.414 0.276,0.412C0.265,0.406 0.253,0.399 0.241,0.392C-0.043,0.223 -0.053,0.135 0.092,-0.115C0.225,-0.345 0.306,-0.492 0.306,-0.492L0.328,-0.405Z" style="fill:url(#_Linear1);fill-rule:nonzero;"/>
        </g>
        <g transform="matrix(1,0,0,1,521.196,424.95)">
            <path d="M0,5.864C16.007,5.967 18.972,-2.071 18.993,-16.331C19.018,-32.953 15.733,-36.204 -0.257,-36.537L-23.099,-36.695L-23.113,5.864L0,5.864M3.04,-42.957C18.077,-42.862 25.274,-39.038 25.563,-17.101C25.914,9.565 18.239,12.407 3.012,13.165L-23.115,13.022L-23.126,48.821L-29.951,48.8L-29.995,-42.866L3.04,-42.957Z" style="fill:rgb(2,51,99);fill-rule:nonzero;"/>
        </g>
        <g transform="matrix(-0.726311,0.687366,0.687366,0.726311,456.833,395.687)">
            <path d="M28.665,80.352L33.287,80.352L-34.179,9.107L-34.308,13.852L28.665,80.352Z" style="fill:rgb(14,22,85);fill-rule:nonzero;"/>
        </g>
        <g transform="matrix(-71.1523,2.54077,2.54077,71.1523,577.885,407.406)">
            <path d="M1.248,-0.446L1.203,-0.397L0.737,-0.38C0.729,-0.38 0.721,-0.38 0.713,-0.379L0.69,-0.377C0.688,-0.377 0.682,-0.377 0.681,-0.376C0.669,-0.375 0.676,-0.376 0.664,-0.375L0.642,-0.372C0.641,-0.371 0.639,-0.371 0.637,-0.371C0.627,-0.369 0.617,-0.367 0.608,-0.364C0.607,-0.364 0.606,-0.363 0.604,-0.363C0.596,-0.361 0.589,-0.358 0.581,-0.356C0.58,-0.355 0.579,-0.355 0.578,-0.354C0.57,-0.351 0.563,-0.348 0.557,-0.345L0.544,-0.338C0.542,-0.337 0.541,-0.336 0.539,-0.335L0.527,-0.326C0.523,-0.323 0.518,-0.319 0.514,-0.315C0.513,-0.314 0.512,-0.313 0.511,-0.312C0.508,-0.309 0.504,-0.306 0.501,-0.302C0.5,-0.301 0.499,-0.3 0.498,-0.299C0.495,-0.294 0.491,-0.289 0.488,-0.284L0.478,-0.267C0.477,-0.266 0.476,-0.264 0.475,-0.263L0.467,-0.246C0.465,-0.24 0.463,-0.234 0.46,-0.228L0.455,-0.21L0.45,-0.191C0.45,-0.188 0.449,-0.185 0.448,-0.183L0.445,-0.161L0.441,-0.137C0.44,-0.128 0.44,-0.119 0.439,-0.11C0.439,-0.107 0.439,-0.105 0.439,-0.102C0.438,-0.095 0.438,-0.087 0.437,-0.079C0.437,-0.076 0.437,-0.073 0.437,-0.07C0.437,-0.063 0.437,-0.056 0.437,-0.049C0.437,-0.046 0.437,-0.043 0.437,-0.04C0.437,-0.03 0.437,-0.02 0.437,-0.009C0.438,0.002 0.438,0.012 0.439,0.023L0.441,0.055L0.444,0.085L0.447,0.114C0.448,0.123 0.45,0.132 0.451,0.141C0.453,0.15 0.454,0.16 0.456,0.168C0.456,0.171 0.457,0.174 0.458,0.177C0.459,0.183 0.46,0.189 0.461,0.194L0.466,0.214L0.472,0.233C0.473,0.236 0.474,0.238 0.475,0.241C0.477,0.249 0.48,0.257 0.483,0.264C0.484,0.265 0.484,0.265 0.484,0.265C0.487,0.272 0.49,0.278 0.493,0.284C0.494,0.286 0.495,0.288 0.496,0.29C0.498,0.293 0.5,0.297 0.502,0.3C0.503,0.302 0.504,0.304 0.506,0.306L0.516,0.319L0.526,0.331C0.529,0.335 0.533,0.339 0.537,0.342L0.549,0.352C0.551,0.353 0.552,0.354 0.553,0.355C0.557,0.358 0.561,0.36 0.565,0.363C0.566,0.363 0.567,0.364 0.569,0.365C0.575,0.368 0.581,0.371 0.588,0.374L0.603,0.38C0.605,0.38 0.606,0.381 0.608,0.382L0.624,0.386C0.631,0.388 0.638,0.39 0.645,0.391C0.647,0.391 0.649,0.392 0.65,0.392L0.673,0.396C0.681,0.397 0.689,0.397 0.697,0.398C0.699,0.398 0.701,0.399 0.703,0.399L0.73,0.401C0.742,0.401 0.755,0.402 0.768,0.402L1.136,0.389L1.093,0.435L0.766,0.446C0.751,0.445 0.738,0.446 0.724,0.445L0.724,0.445L0.724,0.445C0.714,0.445 0.705,0.444 0.696,0.443C0.693,0.443 0.691,0.443 0.689,0.443C0.68,0.442 0.671,0.441 0.662,0.44C0.661,0.439 0.661,0.439 0.66,0.439C0.652,0.438 0.644,0.437 0.636,0.435C0.634,0.435 0.632,0.435 0.63,0.434C0.622,0.433 0.614,0.431 0.607,0.429L0.588,0.424C0.586,0.423 0.584,0.422 0.582,0.421L0.566,0.416C0.566,0.415 0.565,0.415 0.565,0.415C0.557,0.412 0.55,0.408 0.543,0.404L0.539,0.402L0.523,0.392L0.506,0.379L0.493,0.366L0.48,0.352L0.468,0.335L0.456,0.316C0.456,0.315 0.456,0.314 0.455,0.314C0.452,0.307 0.448,0.3 0.445,0.293L0.438,0.275L0.433,0.262L0.428,0.247C0.427,0.244 0.426,0.24 0.425,0.236L0.42,0.219L0.414,0.195C0.414,0.192 0.413,0.189 0.413,0.186C0.411,0.176 0.409,0.167 0.407,0.157L0.403,0.126L0.399,0.095L0.397,0.061L0.394,0.024C0.394,0.014 0.393,0.002 0.393,-0.009C0.392,-0.021 0.392,-0.032 0.392,-0.043C0.392,-0.047 0.392,-0.05 0.392,-0.054C0.392,-0.061 0.392,-0.069 0.392,-0.076C0.392,-0.077 0.392,-0.079 0.392,-0.081L0.394,-0.112C0.394,-0.115 0.394,-0.118 0.394,-0.121C0.395,-0.131 0.396,-0.141 0.397,-0.151L0.401,-0.177C0.401,-0.181 0.402,-0.183 0.402,-0.187L0.406,-0.207L0.411,-0.225C0.411,-0.227 0.412,-0.23 0.413,-0.233L0.419,-0.252L0.427,-0.274L0.438,-0.295L0.449,-0.313C0.45,-0.315 0.451,-0.316 0.451,-0.317C0.456,-0.323 0.46,-0.328 0.464,-0.333C0.465,-0.335 0.466,-0.336 0.468,-0.337C0.471,-0.341 0.475,-0.345 0.479,-0.349C0.48,-0.35 0.481,-0.351 0.482,-0.353C0.487,-0.357 0.492,-0.361 0.498,-0.365L0.512,-0.375C0.514,-0.376 0.515,-0.377 0.517,-0.379L0.53,-0.386C0.53,-0.386 0.531,-0.386 0.532,-0.387C0.539,-0.391 0.548,-0.394 0.556,-0.398L0.56,-0.399C0.569,-0.402 0.578,-0.405 0.587,-0.408L0.591,-0.409C0.601,-0.412 0.613,-0.414 0.624,-0.417L0.647,-0.42C0.649,-0.421 0.651,-0.421 0.653,-0.421L0.678,-0.424L0.703,-0.426C0.705,-0.426 0.707,-0.426 0.71,-0.427C0.719,-0.427 0.727,-0.428 0.737,-0.428L1.248,-0.446Z" style="fill:url(#_Linear2);fill-rule:nonzero;"/>
        </g>
        <g transform="matrix(0.706993,0.70722,0.70722,-0.706993,656.176,477.299)">
            <path d="M-2.122,2.004L2.286,2.004L-7.039,-7.324L-6.828,-2.704L-2.122,2.004Z" style="fill:rgb(14,22,85);fill-rule:nonzero;"/>
        </g>
        <g transform="matrix(0.674274,-0.738481,-0.738481,-0.674274,696.447,425.304)">
            <path d="M3.308,-0.084L7.933,-0.084L-2.715,-9.8L-2.514,-5.397L3.308,-0.084Z" style="fill:rgb(118,124,167);fill-rule:nonzero;"/>
        </g>
        <g transform="matrix(0.707107,0.707107,0.707107,-0.707107,673.072,436.542)">
            <path d="M-16.056,-7.936L-11.648,-7.936L19.158,-38.764L14.751,-38.763L-16.056,-7.936Z" style="fill:rgb(118,124,167);fill-rule:nonzero;"/>
        </g>
        <g transform="matrix(0.706993,0.70722,0.70722,-0.706993,694.051,445.23)">
            <path d="M-6.891,13.516L-2.484,13.516L-32.623,-16.633L-37.031,-16.633L-6.891,13.516Z" style="fill:rgb(14,22,85);fill-rule:nonzero;"/>
        </g>
        <g transform="matrix(0.674157,-0.738588,-0.738588,-0.674157,700.89,384.509)">
            <path d="M3.424,-0.136L8.049,-0.136L-2.833,-10.064L-2.632,-5.66L3.424,-0.136Z" style="fill:rgb(118,124,167);fill-rule:nonzero;"/>
        </g>
        <g transform="matrix(0.674157,-0.738588,-0.738588,-0.674157,664.824,439.257)">
            <path d="M6.192,17.452L10.817,17.452L39.558,-14.036L34.932,-14.035L6.192,17.452Z" style="fill:rgb(118,124,167);fill-rule:nonzero;"/>
        </g>
        <g transform="matrix(0.707107,0.707107,0.707107,-0.707107,668.117,393.951)">
            <path d="M-11.089,-5.88L-6.68,-5.88L11.781,-24.353L11.991,-28.974L-11.089,-5.88Z" style="fill:rgb(118,124,167);fill-rule:nonzero;"/>
        </g>
        <g transform="matrix(0.706993,0.70722,0.70722,-0.706993,697.944,406.306)">
            <path d="M-7.557,15.124L-3.15,15.124L-36.504,-18.24L-40.912,-18.241L-7.557,15.124Z" style="fill:rgb(14,22,85);fill-rule:nonzero;"/>
        </g>
        <g transform="matrix(-0.707003,-0.70721,-0.70721,0.707003,696.367,398.087)">
            <path d="M44.486,21.847L49.316,21.847L6.637,-20.846L6.424,-16.226L44.486,21.847Z" style="fill:rgb(118,124,167);fill-rule:nonzero;"/>
        </g>
        <g transform="matrix(-0.738794,0.673931,0.673931,0.738794,615.285,395.009)">
            <path d="M28.261,81.657L32.886,81.657L-33.75,8.651L-33.972,13.477L28.261,81.657Z" style="fill:rgb(14,22,85);fill-rule:nonzero;"/>
        </g>
        <g transform="matrix(1,0,0,1,703.299,474.382)">
            <path d="M0,-92.311L-0.003,-84.114L-47.181,-84.114L-47.191,-51.464L-4.56,-51.464L-4.562,-43.582L-47.193,-43.582L-47.206,0L-53.863,0L-53.835,-92.311L0,-92.311Z" style="fill:rgb(2,50,98);fill-rule:nonzero;"/>
        </g>
        <g transform="matrix(0.707107,0.707107,0.707107,-0.707107,630.883,477.379)">
            <path d="M-2.304,2.447L2.104,2.447L-8.111,-7.768L-7.898,-3.147L-2.304,2.447Z" style="fill:rgb(14,22,85);fill-rule:nonzero;"/>
        </g>
        <g transform="matrix(-0.738794,0.673931,0.673931,0.738794,606.612,440.336)">
            <path d="M10.54,35.978L15.165,35.978L-13.944,4.086L-18.57,4.085L10.54,35.978Z" style="fill:rgb(14,22,85);fill-rule:nonzero;"/>
        </g>
        <g transform="matrix(0.707561,0.706652,0.706652,-0.707561,570.332,477.348)">
            <path d="M-2.301,2.427L2.103,2.427L-8.069,-7.761L-7.857,-3.137L-2.301,2.427Z" style="fill:rgb(14,22,85);fill-rule:nonzero;"/>
        </g>
        <g transform="matrix(0.674157,-0.738588,-0.738588,-0.674157,597.745,398.317)">
            <path d="M34.273,-13.757L38.898,-13.757L-33.707,-79.989L-33.506,-75.584L34.273,-13.757Z" style="fill:rgb(129,133,173);fill-rule:nonzero;"/>
        </g>
        <g transform="matrix(-0.707003,-0.70721,-0.70721,0.707003,630.807,382.055)">
            <path d="M5.291,5.608L10.122,5.608L-0.091,-4.607L-0.302,0.013L5.291,5.608Z" style="fill:rgb(118,124,167);fill-rule:nonzero;"/>
        </g>
        <g transform="matrix(-0.707003,-0.70721,-0.70721,0.707003,635.7,384.086)">
            <path d="M-18.421,36.249L-13.591,36.249L15.018,7.632L10.187,7.633L-18.421,36.249Z" style="fill:rgb(14,22,85);fill-rule:nonzero;"/>
        </g>
        <g transform="matrix(0.707107,0.707107,0.707107,-0.707107,587.249,436.52)">
            <path d="M-15.907,-7.875L-11.499,-7.875L19.01,-38.403L14.606,-38.406L-15.907,-7.875Z" style="fill:rgb(129,133,173);fill-rule:nonzero;"/>
        </g>
        <g transform="matrix(-0.738794,0.673931,0.673931,0.738794,578.36,451.292)">
            <path d="M-46.826,15.032L-42.201,15.032L-8.129,-16.048L-7.927,-20.452L-46.826,15.032Z" style="fill:rgb(14,22,85);fill-rule:nonzero;"/>
        </g>
        <g transform="matrix(0.674157,-0.738588,-0.738588,-0.674157,580.276,441.63)">
            <path d="M7.317,20.001L11.942,20.001L43.033,-14.062L42.812,-18.888L7.317,20.001Z" style="fill:rgb(129,133,173);fill-rule:nonzero;"/>
        </g>
        <g transform="matrix(0.674157,-0.738588,-0.738588,-0.674157,557.272,389.461)">
            <path d="M14.188,-4.889L18.813,-4.889L-11.081,-32.16L-15.707,-32.159L14.188,-4.889Z" style="fill:rgb(129,133,173);fill-rule:nonzero;"/>
        </g>
        <g transform="matrix(1,0,0,1,631.012,474.02)">
            <path d="M0,-91.742L-0.029,0L-7.939,0L-7.927,-43.18L-60.579,-43.18L-60.592,-0.015L-68.455,-0.005L-68.427,-91.742L-60.564,-91.742L-60.576,-51.278L-7.924,-51.278L-7.912,-91.742L0,-91.742Z" style="fill:rgb(2,51,99);fill-rule:nonzero;"/>
        </g>
        <g transform="matrix(-0.707107,-0.707107,-0.707107,0.707107,570.25,382.037)">
            <path d="M5.249,5.59L10.08,5.59L-0.1,-4.59L-0.311,0.03L5.249,5.59Z" style="fill:rgb(118,124,167);fill-rule:nonzero;"/>
        </g>
        <g transform="matrix(-0.738355,0.674413,0.674413,0.738355,528.577,395.166)">
            <path d="M28.087,81.135L32.716,81.135L-33.584,8.593L-33.802,13.42L28.087,81.135Z" style="fill:rgb(14,22,85);fill-rule:nonzero;"/>
        </g>
        <g transform="matrix(-0.390315,37.8409,37.6769,3.55271e-15,595.633,291.068)">
            <path d="M-0.376,-0.715C-0.003,-0.712 0.299,-0.401 0.299,-0.023C0.299,0.356 -0.003,0.659 -0.376,0.656C-0.749,0.652 -1.051,0.342 -1.051,-0.037C-1.051,-0.077 -1.011,-0.722 -0.376,-0.715Z" style="fill:url(#_Radial3);fill-rule:nonzero;"/>
        </g>
        <g transform="matrix(1,0,0,1,595.538,263.671)">
            <path d="M0,26.179L0.004,25.929C0.029,24.15 0.045,22.217 0.049,20.152C2.334,20.126 4.61,20.016 6.811,19.825L7.428,19.768C9.455,19.575 11.395,19.314 13.197,18.989C13.181,21.005 13.024,22.947 12.731,24.76L12.689,25.014C12.384,26.807 11.945,28.477 11.468,29.909C9.774,30.219 7.945,30.464 6.021,30.637L5.783,30.66C3.879,30.825 1.9,30.921 -0.1,30.944C-0.059,29.524 -0.023,27.929 0,26.179M-14.393,19.116C-13.396,19.284 -12.328,19.435 -11.217,19.568C-10.08,19.703 -8.905,19.817 -7.724,19.905L-6.867,19.967C-4.938,20.092 -2.948,20.156 -0.952,20.156L-0.457,20.154C-0.461,22.219 -0.473,24.151 -0.492,25.929L-0.495,26.18C-0.513,27.93 -0.539,29.526 -0.571,30.948L-1.01,30.949C-1.537,30.949 -2.066,30.945 -2.595,30.934C-3.96,30.906 -5.325,30.845 -6.652,30.749L-6.905,30.73C-7.932,30.653 -8.95,30.554 -9.956,30.435C-10.941,30.317 -11.879,30.183 -12.774,30.033C-13.278,28.547 -13.671,26.902 -13.942,25.142L-13.981,24.889C-14.246,23.073 -14.384,21.131 -14.393,19.116M-23.489,9.523L-23.415,9.242C-22.934,7.296 -22.248,5.386 -21.372,3.562C-20.474,4.054 -19.353,4.514 -18.04,4.924L-17.277,5.152C-16.038,5.5 -14.658,5.811 -13.174,6.072C-13.639,7.825 -14.013,9.612 -14.298,11.465L-14.426,12.339C-14.687,14.275 -14.829,16.357 -14.845,18.528C-16.815,18.182 -18.611,17.763 -20.186,17.283L-20.381,17.223C-21.898,16.747 -23.184,16.22 -24.205,15.653C-24.187,13.523 -23.945,11.46 -23.489,9.523M-11.553,-5.575L-11.449,-5.545C-10.622,-5.292 -9.674,-5.069 -8.629,-4.884C-9.503,-3.454 -10.313,-1.866 -11.039,-0.162L-11.144,0.083C-11.872,1.822 -12.51,3.671 -13.04,5.584C-14.556,5.318 -15.964,5.001 -17.226,4.639L-17.888,4.44C-19.178,4.036 -20.273,3.587 -21.149,3.105C-20.256,1.322 -19.18,-0.38 -17.95,-1.953L-17.776,-2.174C-16.764,-3.443 -15.647,-4.63 -14.454,-5.702C-14.18,-5.946 -13.904,-6.187 -13.621,-6.42C-13.06,-6.114 -12.365,-5.831 -11.553,-5.575M11.253,-6.796L10.976,-6.647L10.824,-6.571C10.457,-6.395 10.03,-6.224 9.455,-6.032C8.677,-5.775 7.774,-5.547 6.772,-5.358C6.105,-6.334 5.408,-7.234 4.698,-8.036C4.353,-8.421 4.005,-8.787 3.649,-9.134L3.49,-9.288C2.605,-10.129 1.69,-10.842 0.77,-11.407C0.579,-11.523 0.388,-11.634 0.196,-11.739C0.223,-11.747 0.248,-11.755 0.273,-11.763C0.365,-11.793 0.444,-11.827 0.506,-11.864C2.433,-11.498 4.338,-10.888 6.173,-10.052L6.427,-9.933C8.171,-9.112 9.845,-8.087 11.406,-6.885C11.355,-6.855 11.305,-6.825 11.253,-6.796M11.731,-6.647L11.731,-6.646L11.73,-6.646C11.731,-6.646 11.731,-6.646 11.731,-6.647M17.682,3.795C17.256,3.972 16.802,4.141 16.32,4.304L16.158,4.359C14.872,4.781 13.385,5.155 11.739,5.468C11.171,3.548 10.492,1.704 9.721,-0.014L9.611,-0.26C8.838,-1.953 7.974,-3.531 7.038,-4.956C8.027,-5.148 8.929,-5.377 9.809,-5.668C10.36,-5.852 10.854,-6.054 11.327,-6.294L11.81,-6.566C12.181,-6.268 12.546,-5.963 12.902,-5.647C13.287,-5.305 13.662,-4.952 14.03,-4.591L14.453,-4.165C15.006,-3.595 15.544,-2.992 16.054,-2.372L16.234,-2.152C16.691,-1.584 17.131,-0.994 17.541,-0.4C17.731,-0.123 17.918,0.156 18.098,0.439C18.605,1.232 19.075,2.05 19.497,2.874C18.979,3.199 18.369,3.507 17.682,3.795M18.905,17.052L18.718,17.114C17.248,17.597 15.544,18.026 13.654,18.386C13.643,16.345 13.491,14.264 13.199,12.203L13.155,11.909C12.859,9.901 12.431,7.899 11.88,5.954C13.543,5.637 15.042,5.26 16.336,4.835L16.499,4.779C16.672,4.722 16.84,4.662 17.067,4.581C17.283,4.501 17.496,4.419 17.7,4.337C18.474,4.022 19.155,3.684 19.727,3.327C20.615,5.141 21.31,7.042 21.794,8.976L21.862,9.26C22.172,10.555 22.386,11.869 22.5,13.167C22.569,13.924 22.604,14.686 22.656,15.343C21.695,15.963 20.433,16.538 18.905,17.052M3.423,-8.966C3.795,-8.593 4.159,-8.2 4.521,-7.783C5.169,-7.032 5.805,-6.194 6.413,-5.291C5.434,-5.117 4.377,-4.977 3.269,-4.877L3.127,-4.865C2.123,-4.777 1.102,-4.722 0.093,-4.701C-0.073,-4.695 -0.24,-4.693 -0.408,-4.693L-0.515,-6.883C-0.526,-7.113 -0.539,-7.338 -0.554,-7.559C-0.575,-7.948 -0.6,-8.319 -0.623,-8.673L-0.757,-10.462C-0.766,-10.534 -0.772,-10.605 -0.787,-10.774C-0.794,-10.867 -0.803,-10.959 -0.813,-11.044C-0.83,-11.237 -0.85,-11.421 -0.87,-11.592C-0.756,-11.595 -0.641,-11.602 -0.521,-11.613C-0.387,-11.623 -0.262,-11.64 -0.143,-11.662C0.114,-11.526 0.369,-11.378 0.623,-11.218C1.522,-10.655 2.411,-9.948 3.266,-9.117L3.423,-8.966ZM-1.729,-11.628C-1.651,-11.618 -1.574,-11.611 -1.479,-11.604C-1.357,-11.595 -1.234,-11.591 -1.112,-11.589L-1.04,-10.622L-1.031,-10.485L-1.022,-10.326C-1.006,-10.093 -0.991,-9.849 -0.979,-9.593C-0.964,-9.35 -0.951,-9.093 -0.939,-8.827L-0.775,-4.689L-0.972,-4.688C-1.802,-4.688 -2.64,-4.709 -3.474,-4.752C-3.789,-4.767 -4.104,-4.788 -4.42,-4.812L-4.572,-4.822C-5.194,-4.868 -5.811,-4.926 -6.421,-5L-7.066,-5.084C-7.39,-5.127 -7.704,-5.174 -8.009,-5.224C-7.285,-6.388 -6.509,-7.453 -5.642,-8.458L-5.075,-9.08C-4.976,-9.187 -4.875,-9.29 -4.773,-9.393L-4.559,-9.604C-4.442,-9.716 -4.325,-9.829 -4.204,-9.938C-4.101,-10.034 -3.994,-10.128 -3.886,-10.222L-3.686,-10.393C-3.096,-10.887 -2.498,-11.31 -1.908,-11.653C-1.851,-11.644 -1.79,-11.635 -1.729,-11.628M6.677,-4.89C7.611,-3.45 8.473,-1.852 9.24,-0.136L9.349,0.106C10.105,1.822 10.767,3.652 11.317,5.547C9.681,5.843 7.9,6.079 6.022,6.25L5.786,6.271C3.896,6.437 1.928,6.532 -0.066,6.554C-0.103,4.597 -0.148,2.709 -0.202,0.926L-0.292,-1.897L-0.294,-1.897C-0.323,-2.717 -0.354,-3.506 -0.387,-4.261C-0.166,-4.263 0.057,-4.266 0.276,-4.271C1.276,-4.297 2.267,-4.352 3.219,-4.437L3.364,-4.449C4.539,-4.554 5.654,-4.703 6.677,-4.89M-7.12,-4.648L-6.542,-4.575C-5.918,-4.501 -5.286,-4.439 -4.652,-4.393L-4.493,-4.381C-4.105,-4.353 -3.717,-4.33 -3.325,-4.311C-2.551,-4.274 -1.775,-4.256 -1.003,-4.256L-0.761,-4.256C-0.738,-3.469 -0.715,-2.642 -0.693,-1.776L-0.629,0.933C-0.591,2.714 -0.559,4.602 -0.534,6.558L-0.971,6.56C-2.777,6.56 -4.582,6.498 -6.332,6.378L-7.184,6.313C-7.939,6.253 -8.691,6.181 -9.434,6.097L-10.571,5.96C-10.888,5.919 -11.2,5.874 -11.561,5.822C-11.914,5.768 -12.261,5.715 -12.601,5.659C-12.083,3.756 -11.462,1.921 -10.753,0.2L-10.654,-0.044C-9.931,-1.77 -9.125,-3.376 -8.257,-4.818C-7.891,-4.758 -7.513,-4.701 -7.12,-4.648M13.199,18.47C11.344,18.808 9.337,19.078 7.232,19.272L6.792,19.314C4.595,19.504 2.327,19.614 0.05,19.638C0.051,18.15 0.049,16.657 0.038,15.17L0.025,13.112C0.008,11.054 -0.021,9.021 -0.056,7.054C1.952,7.032 3.938,6.936 5.847,6.768L6.086,6.748C7.97,6.577 9.776,6.336 11.456,6.032C11.999,7.98 12.421,9.981 12.711,11.984L12.754,12.276C13.043,14.345 13.192,16.429 13.199,18.47M-0.46,15.174C-0.456,16.66 -0.454,18.155 -0.455,19.642L-0.921,19.643C-2.9,19.643 -4.869,19.582 -6.77,19.459L-7.707,19.393C-8.88,19.306 -10.051,19.192 -11.189,19.057C-12.28,18.927 -13.357,18.773 -14.393,18.601C-14.379,16.562 -14.232,14.477 -13.958,12.404L-13.838,11.55C-13.563,9.726 -13.191,7.908 -12.73,6.147C-12.508,6.185 -12.283,6.219 -12.055,6.255C-11.375,6.36 -10.667,6.458 -9.937,6.545C-9.008,6.655 -8.067,6.748 -7.117,6.821L-6.284,6.883C-4.544,7 -2.742,7.06 -0.924,7.06L-0.525,7.058C-0.508,8.515 -0.492,10.007 -0.48,11.52L-0.48,11.722L-0.46,15.174ZM-2.584,-11.845C-2.519,-11.812 -2.439,-11.781 -2.335,-11.749C-2.307,-11.739 -2.276,-11.731 -2.245,-11.722C-2.734,-11.43 -3.223,-11.091 -3.707,-10.708C-3.941,-10.521 -4.171,-10.326 -4.401,-10.121C-4.543,-9.995 -4.679,-9.869 -4.817,-9.736L-5.673,-8.861C-5.799,-8.725 -5.926,-8.583 -6.052,-8.44L-6.21,-8.255L-6.292,-8.157C-7.012,-7.304 -7.713,-6.338 -8.377,-5.286C-9.413,-5.468 -10.364,-5.689 -11.204,-5.945L-11.31,-5.979C-12.053,-6.209 -12.695,-6.468 -13.221,-6.747C-11.922,-7.785 -10.548,-8.693 -9.136,-9.451C-8.88,-9.587 -8.623,-9.719 -8.363,-9.846L-8.115,-9.968C-6.324,-10.826 -4.463,-11.458 -2.584,-11.845M-23.504,21.992C-23.963,20.137 -24.207,18.187 -24.228,16.189C-23.208,16.744 -21.945,17.257 -20.47,17.718L-20.275,17.778C-18.69,18.262 -16.872,18.685 -14.869,19.037C-14.861,21.073 -14.719,23.038 -14.446,24.879L-14.406,25.133C-14.134,26.865 -13.743,28.484 -13.243,29.953C-14.946,29.651 -16.494,29.29 -17.848,28.876L-18.017,28.824C-19.369,28.401 -20.51,27.93 -21.368,27.467C-22.262,25.855 -22.958,24.099 -23.439,22.253L-23.504,21.992ZM21.84,21.724L21.77,21.987C21.272,23.838 20.552,25.601 19.663,27.187C18.826,27.728 17.722,28.23 16.385,28.68L16.221,28.735C14.957,29.151 13.492,29.522 11.866,29.834C12.405,28.369 12.83,26.746 13.132,25.008L13.175,24.753C13.476,22.912 13.637,20.945 13.653,18.903C15.572,18.539 17.298,18.106 18.788,17.614L18.973,17.552C20.427,17.063 21.649,16.517 22.604,15.929C22.573,17.92 22.316,19.87 21.84,21.724M24.917,12.078C24.917,12.297 24.682,13.088 24.567,13.364C24.457,13.628 24.292,13.894 24.077,14.151C23.79,14.49 23.41,14.826 22.941,15.151C22.934,14.429 22.895,13.692 22.826,12.956C22.708,11.69 22.495,10.405 22.192,9.134L22.123,8.849C21.632,6.9 20.924,4.98 20.016,3.14C20.811,2.597 21.337,2.021 21.609,1.36C21.696,1.121 21.687,1.009 21.666,0.719L21.394,0.251C21.397,0.469 21.34,0.832 21.236,1.104C21.016,1.643 20.528,2.174 19.784,2.684C19.334,1.813 18.837,0.959 18.306,0.145C17.977,-0.36 17.63,-0.855 17.273,-1.336C17.021,-1.68 16.758,-2.015 16.489,-2.344L16.309,-2.566C15.746,-3.246 15.16,-3.892 14.57,-4.486L14.233,-4.822C13.952,-5.094 13.669,-5.36 13.38,-5.623C12.951,-6.008 12.513,-6.379 12.064,-6.737C12.389,-6.967 12.638,-7.206 12.804,-7.447C12.874,-7.55 12.932,-7.654 12.993,-7.808C13.008,-7.851 13.023,-7.894 13.041,-7.97C13.073,-8.111 13.12,-8.115 13.053,-8.328L12.59,-8.578L12.613,-8.36C12.609,-8.257 12.59,-8.153 12.532,-7.997C12.49,-7.897 12.437,-7.8 12.37,-7.704C12.324,-7.641 12.271,-7.578 12.207,-7.511C12.164,-7.463 12.118,-7.419 12.069,-7.373C11.952,-7.264 11.817,-7.158 11.663,-7.05C10.067,-8.279 8.35,-9.323 6.559,-10.155L6.298,-10.274C4.488,-11.091 2.608,-11.688 0.706,-12.054C0.71,-12.061 0.713,-12.069 0.716,-12.077C0.742,-12.149 0.735,-12.225 0.69,-12.3C0.69,-12.3 -0.262,-12.548 -1.014,-12.529C-1.695,-12.512 -2.849,-12.202 -2.849,-12.202C-2.875,-12.13 -2.856,-12.104 -2.812,-12.028C-4.66,-11.638 -6.487,-11.019 -8.245,-10.188L-8.501,-10.066C-8.781,-9.927 -9.061,-9.786 -9.338,-9.638C-10.785,-8.866 -12.183,-7.945 -13.493,-6.9C-13.588,-6.955 -13.68,-7.015 -13.785,-7.088L-13.934,-7.192C-14.199,-7.393 -14.401,-7.598 -14.562,-7.844C-14.619,-7.934 -14.664,-8.028 -14.712,-8.177L-14.743,-8.348L-15.199,-8.136L-15.146,-7.909C-15.109,-7.796 -15.056,-7.685 -14.956,-7.523C-14.789,-7.27 -14.538,-7.024 -14.211,-6.79L-14.074,-6.694C-14.015,-6.656 -13.953,-6.615 -13.89,-6.577C-14.122,-6.386 -14.348,-6.192 -14.575,-5.992C-15.819,-4.894 -16.983,-3.674 -18.036,-2.362L-18.213,-2.14C-19.458,-0.562 -20.546,1.146 -21.449,2.935C-22.262,2.452 -22.846,1.944 -23.229,1.363C-23.436,1.031 -23.579,0.549 -23.579,0.172L-23.893,0.744C-23.875,1.151 -23.765,1.391 -23.508,1.8C-23.142,2.353 -22.526,2.887 -21.674,3.39C-22.562,5.224 -23.259,7.151 -23.748,9.12L-23.816,9.406C-24.288,11.391 -24.542,13.422 -24.572,15.448C-25.482,14.9 -26.141,14.323 -26.575,13.664C-26.626,13.583 -26.672,13.501 -26.713,13.417C-26.709,13.626 -26.709,14.156 -26.709,14.156C-26.279,14.807 -25.542,15.435 -24.574,15.932C-24.566,18.012 -24.319,20.045 -23.838,21.974L-23.771,22.237C-23.324,23.955 -22.686,25.601 -21.872,27.136C-22.613,26.622 -23.334,25.976 -23.303,25.865C-23.303,25.865 -22.846,26.865 -21.544,27.735C-20.633,29.324 -19.533,30.777 -18.269,32.053L-18.092,32.231C-17.188,33.121 -13.922,35.224 -13.922,35.224C-14.95,34.542 -16.963,32.999 -17.846,32.127L-18.021,31.951C-19.174,30.787 -20.192,29.466 -21.05,28.022C-20.204,28.46 -19.173,28.871 -17.979,29.245L-17.808,29.298C-16.425,29.722 -14.838,30.09 -13.088,30.395C-12.562,31.847 -11.926,33.138 -11.197,34.235L-11.093,34.391C-10.347,35.484 -9.506,36.375 -8.594,37.043L-8.466,37.133C-7.635,37.719 -6.995,38.001 -6.068,38.198L-4.886,38.408C-5.78,38.221 -7.401,37.551 -8.203,36.98L-8.327,36.891C-9.199,36.243 -10.007,35.371 -10.725,34.3L-10.828,34.148C-11.514,33.095 -12.116,31.86 -12.618,30.474C-11.763,30.617 -10.865,30.742 -9.925,30.855C-8.926,30.974 -7.909,31.073 -6.887,31.15L-6.636,31.169C-5.289,31.264 -3.932,31.325 -2.603,31.353C-2.085,31.364 -1.567,31.368 -1.052,31.368L-0.579,31.367C-0.612,32.75 -0.651,33.961 -0.693,34.976L-0.743,36.054C-0.765,36.46 -0.787,36.822 -0.813,37.181L-0.85,37.62C-0.878,37.924 -0.908,38.16 -0.949,38.374C-0.975,38.514 -1.075,38.715 -1.083,38.713L-0.895,38.726L-0.859,38.727L-0.809,38.713L-0.74,38.691C-0.692,38.641 -0.654,38.552 -0.614,38.402C-0.567,38.232 -0.524,37.977 -0.47,37.562C-0.402,36.994 -0.338,36.218 -0.281,35.246L-0.266,34.984C-0.207,33.966 -0.156,32.753 -0.114,31.364C1.853,31.341 3.815,31.247 5.759,31.08L5.994,31.059C7.841,30.892 9.604,30.657 11.238,30.364C10.692,31.754 10.039,32.993 9.296,34.048L9.188,34.202C8.409,35.279 7.534,36.159 6.59,36.816L6.456,36.908C5.553,37.511 3.132,38.353 2.131,38.54L3.625,38.313L3.74,38.292C4.778,38.091 5.774,37.679 6.703,37.065L6.842,36.973C7.823,36.298 8.729,35.399 9.536,34.297L9.648,34.141C10.444,33.025 11.141,31.707 11.637,30.292C13.339,29.97 14.867,29.59 16.182,29.156L16.343,29.102C17.496,28.715 18.479,28.287 19.272,27.826C18.394,29.264 17.355,30.582 16.18,31.75L15.997,31.929C15.299,32.606 14.538,33.244 13.738,33.821C13.738,33.823 11.732,35.463 11.732,35.463L12.477,35.033C13.326,34.424 15.513,32.727 16.237,32.027L16.419,31.847C17.717,30.562 18.852,29.095 19.76,27.524C20.602,26.964 21.233,26.193 21.403,25.974L21.859,25.274L22.059,24.907C22.059,24.907 20.741,26.337 20.174,26.811C20.991,25.292 21.638,23.665 22.098,21.967L22.167,21.7C22.668,19.687 22.929,17.652 22.895,15.742C23.442,15.379 23.886,15 24.215,14.617C24.443,14.349 24.616,14.109 24.766,13.742C24.9,13.413 24.902,13.46 24.94,13.175L24.917,12.078Z" style="fill:white;fill-rule:nonzero;"/>
        </g>
    </g>
    <defs>
        <linearGradient id="_Linear1" x1="0" y1="0" x2="1" y2="0" gradientUnits="userSpaceOnUse" gradientTransform="matrix(1,0,0,-1,4.44089e-16,-1.13823e-05)"><stop offset="0" style="stop-color:rgb(14,22,85);stop-opacity:1"/><stop offset="0.41" style="stop-color:rgb(2,51,99);stop-opacity:1"/><stop offset="0.91" style="stop-color:rgb(129,133,173);stop-opacity:1"/><stop offset="1" style="stop-color:rgb(129,133,173);stop-opacity:1"/></linearGradient>
        <linearGradient id="_Linear2" x1="0" y1="0" x2="1" y2="0" gradientUnits="userSpaceOnUse" gradientTransform="matrix(1,0,0,-1,0,-0.000187756)"><stop offset="0" style="stop-color:white;stop-opacity:1"/><stop offset="0.43" style="stop-color:rgb(161,158,183);stop-opacity:1"/><stop offset="0.62" style="stop-color:rgb(2,51,99);stop-opacity:1"/><stop offset="1" style="stop-color:rgb(14,22,85);stop-opacity:1"/></linearGradient>
        <radialGradient id="_Radial3" cx="0" cy="0" r="1" gradientUnits="userSpaceOnUse" gradientTransform="matrix(-0.834266,0.551362,0.551362,0.834266,-0.713426,0.214449)"><stop offset="0" style="stop-color:white;stop-opacity:1"/><stop offset="1" style="stop-color:rgb(17,34,111);stop-opacity:1"/></radialGradient>
    </defs>
</svg>
